<svg preserveAspectRatio="none" width="100%" height="100%" overflow="visible" style="display: block;" viewBox="0 0 20 20" fill="none" xmlns="http://www.w3.org/2000/svg">
<g id="Group">
<path id="Vector" opacity="0" d="M20 0H0V20H20V0Z" fill="var(--fill-0, black)"/>
<path id="Vector_2" d="M6.53738 16.8993C8.47674 16.8993 10.0445 15.3081 10.0445 13.3415C10.0445 11.3995 8.46872 9.81638 6.53738 9.81638C4.59798 9.81638 3.03031 11.3995 3.03031 13.3415C3.03031 15.3081 4.59798 16.8993 6.53738 16.8993ZM12.8001 11.0812C15.0222 11.0812 16.8405 9.23708 16.8405 6.98492C16.8405 4.74909 15.0222 2.92126 12.8001 2.92126C10.5859 2.92126 8.75957 4.74909 8.75957 6.98492C8.75957 9.23708 10.5859 11.0812 12.8001 11.0812ZM9.22825 2.68462C9.69702 2.68462 10.0687 2.30926 10.0687 1.84415C10.0687 1.37087 9.69702 0.995517 9.22825 0.995517C8.76768 0.995517 8.39598 1.37087 8.39598 1.84415C8.39598 2.30926 8.76768 2.68462 9.22825 2.68462ZM13.7939 1.72175C14.2546 1.72175 14.6343 1.34639 14.6343 0.873113C14.6343 0.399838 14.2546 0.0244799 13.7939 0.0244799C13.3253 0.0244799 12.9535 0.399838 12.9535 0.873113C12.9535 1.34639 13.3253 1.72175 13.7939 1.72175ZM17.9071 4.23502C18.3757 4.23502 18.7475 3.85966 18.7475 3.38638C18.7475 2.92126 18.3757 2.54591 17.9071 2.54591C17.4384 2.54591 17.0667 2.92126 17.0667 3.38638C17.0667 3.85966 17.4384 4.23502 17.9071 4.23502ZM18.8606 8.86173C19.3293 8.86173 19.701 8.48631 19.701 8.02123C19.701 7.54795 19.3293 7.17259 18.8606 7.17259C18.4 7.17259 18.0202 7.54795 18.0202 8.02123C18.0202 8.48631 18.4 8.86173 18.8606 8.86173ZM16.3718 12.9662C16.8405 12.9662 17.2122 12.5908 17.2122 12.1257C17.2122 11.6524 16.8405 11.2771 16.3718 11.2771C15.9031 11.2771 15.5313 11.6524 15.5313 12.1257C15.5313 12.5908 15.9031 12.9662 16.3718 12.9662ZM12.4121 15.0632C12.8808 15.0632 13.2525 14.6879 13.2525 14.2146C13.2525 13.7413 12.8808 13.366 12.4121 13.366C11.9435 13.366 11.5717 13.7413 11.5717 14.2146C11.5717 14.6879 11.9435 15.0632 12.4121 15.0632ZM10.0121 18.8005C10.4808 18.8005 10.8525 18.4252 10.8525 17.9519C10.8525 17.4867 10.4808 17.1114 10.0121 17.1114C9.55155 17.1114 9.17985 17.4867 9.17985 17.9519C9.17985 18.4252 9.55155 18.8005 10.0121 18.8005ZM5.66465 20C6.13334 20 6.50506 19.6247 6.50506 19.1514C6.50506 18.6781 6.13334 18.3028 5.66465 18.3028C5.20404 18.3028 4.83232 18.6781 4.83232 19.1514C4.83232 19.6247 5.20404 20 5.66465 20ZM1.9798 17.6826C2.44848 17.6826 2.8202 17.3073 2.8202 16.8421C2.8202 16.3688 2.44848 15.9935 1.9798 15.9935C1.51111 15.9935 1.13939 16.3688 1.13939 16.8421C1.13939 17.3073 1.51111 17.6826 1.9798 17.6826ZM0.840401 13.2844C1.30909 13.2844 1.68081 12.909 1.68081 12.4358C1.68081 11.9625 1.30909 11.5871 0.840401 11.5871C0.371718 11.5871 0 11.9625 0 12.4358C0 12.909 0.371718 13.2844 0.840401 13.2844ZM3.25657 9.38397C3.72525 9.38397 4.09697 9.00854 4.09697 8.53527C4.09697 8.06203 3.72525 7.68668 3.25657 7.68668C2.78788 7.68668 2.41616 8.06203 2.41616 8.53527C2.41616 9.00854 2.78788 9.38397 3.25657 9.38397ZM6.90101 6.83804C7.3697 6.83804 7.74142 6.46269 7.74142 5.98941C7.74142 5.51613 7.3697 5.14077 6.90101 5.14077C6.43233 5.14077 6.06061 5.51613 6.06061 5.98941C6.06061 6.46269 6.43233 6.83804 6.90101 6.83804Z" fill="var(--fill-0, white)"/>
</g>
</svg>
