<svg preserveAspectRatio="xMidYMid meet" width="100%" height="100%" overflow="visible" style="display: block;" viewBox="0 0 21 20" fill="none" xmlns="http://www.w3.org/2000/svg">
<g id="Group">
<path id="Vector" opacity="0" d="M21 0H0V20H21V0Z" fill="var(--fill-0, black)"/>
<path id="Vector_2" d="M0 7.01107C0 11.5024 3.70588 15.9199 9.56053 19.7153C9.77853 19.8524 10.0899 20 10.3079 20C10.5259 20 10.8373 19.8524 11.0658 19.7153C16.91 15.9199 20.6158 11.5024 20.6158 7.01107C20.6158 3.27886 18.0934 0.64312 14.7301 0.64312C12.8097 0.64312 11.2525 1.5709 10.3079 2.9942C9.38406 1.58144 7.80621 0.64312 5.8858 0.64312C2.52249 0.64312 0 3.27886 0 7.01107ZM1.67128 7.01107C1.67128 4.20664 3.45674 2.34054 5.86504 2.34054C7.8166 2.34054 8.9377 3.57407 9.60205 4.62836C9.88234 5.05007 10.0588 5.16605 10.3079 5.16605C10.5571 5.16605 10.7128 5.03953 11.0138 4.62836C11.7301 3.59515 12.8097 2.34054 14.7509 2.34054C17.1592 2.34054 18.9446 4.20664 18.9446 7.01107C18.9446 10.9331 14.865 15.1608 10.5259 18.0917C10.4221 18.1655 10.3495 18.2182 10.3079 18.2182C10.2664 18.2182 10.1937 18.1655 10.1003 18.0917C5.75086 15.1608 1.67128 10.9331 1.67128 7.01107Z" fill="var(--fill-0, white)"/>
<path id="Vector_3" d="M10.3079 6.61044C10.1107 6.61044 9.94462 6.68424 9.72662 6.88455L6.76815 9.65735C6.60207 9.80495 6.50864 9.98418 6.50864 10.2161C6.50864 10.6484 6.80967 10.9436 7.23528 10.9436C7.43251 10.9436 7.65051 10.8593 7.78545 10.7116L8.69894 9.76278L10.3079 8.07591L11.9169 9.76278L12.8304 10.7116C12.9757 10.8593 13.173 10.9436 13.3806 10.9436C13.7958 10.9436 14.1073 10.6484 14.1073 10.2161C14.1073 9.98418 14.0138 9.80495 13.8477 9.65735L10.8892 6.88455C10.6713 6.68424 10.5052 6.61044 10.3079 6.61044ZM10.3079 15.1396C10.7336 15.1396 11.1072 14.7812 11.1072 14.3489V10.5535L11.0242 8.32893C11.0035 7.93885 10.7024 7.60148 10.3079 7.60148C9.91347 7.60148 9.61244 7.93885 9.59168 8.32893L9.51901 10.5535V14.3489C9.51901 14.7812 9.88234 15.1396 10.3079 15.1396Z" fill="var(--fill-0, white)"/>
</g>
</svg>
