<svg preserveAspectRatio="none" width="100%" height="100%" overflow="visible" style="display: block;" viewBox="0 0 20 20" fill="none" xmlns="http://www.w3.org/2000/svg">
<g id="Group">
<path id="Vector" opacity="0" d="M20 0H0V20H20V0Z" fill="var(--fill-0, black)"/>
<path id="Vector_2" d="M9.84614 3.39639C10.4701 3.39639 10.9658 2.82446 10.9658 2.08534C10.9658 1.32864 10.735 0.835898 10.3248 0.343158C10.0513 -0.00879892 9.68379 -0.0175978 9.4017 0.290365C8.99141 0.800703 8.72648 1.30224 8.72648 2.08534C8.72648 2.82446 9.23078 3.39639 9.84614 3.39639ZM9.359 7.45269H10.3076V2.4549H9.359V7.45269ZM4.26495 11.7554H5.64101V9.62604C5.64101 8.79013 6.09401 8.34138 6.87178 8.34138H12.812C13.5897 8.34138 14.0513 8.79013 14.0513 9.62604V11.7554H15.4274V9.55567C15.4274 7.81346 14.5556 6.92476 12.8376 6.92476H6.85469C5.14529 6.92476 4.26495 7.81346 4.26495 9.55567V11.7554ZM1.35043 19.3841H2.72649V14.0783C2.72649 13.2424 3.17948 12.7849 3.95725 12.7849H15.7265C16.5042 12.7849 16.9572 13.2424 16.9572 14.0783V19.3841H18.3333V13.9991C18.3333 12.2569 17.4615 11.3682 15.7521 11.3682H3.94016C2.23077 11.3682 1.35043 12.2569 1.35043 13.9991V19.3841ZM9.83756 15.7941C10.5811 15.7941 11.1709 16.7795 12.4273 16.7795C13.641 16.7795 14.1795 15.7941 14.8804 15.7941C15.5811 15.7941 16.1281 16.7795 17.453 16.7795H17.6838V15.4069H17.453C16.641 15.4069 16.0598 14.4215 14.8804 14.4215C13.6923 14.4215 13.2478 15.4069 12.4273 15.4069C11.4445 15.4069 11.0427 14.4215 9.83756 14.4215C8.62392 14.4215 8.23076 15.4069 7.24785 15.4069C6.42734 15.4069 5.9829 14.4215 4.79487 14.4215C3.60683 14.4215 3.03419 15.4069 2.22222 15.4069H1.94017V16.7795H2.22222C3.547 16.7795 4.09401 15.7941 4.79487 15.7941C5.48717 15.7941 6.03418 16.7795 7.24785 16.7795C8.50426 16.7795 9.08549 15.7941 9.83756 15.7941ZM0.68376 20H19C19.3761 20 19.6837 19.6744 19.6837 19.2872C19.6837 18.9001 19.3761 18.5833 19 18.5833H0.68376C0.307691 18.5833 0 18.9001 0 19.2872C0 19.6744 0.307691 20 0.68376 20Z" fill="var(--fill-0, white)"/>
</g>
</svg>
