<svg preserveAspectRatio="xMidYMid meet" width="100%" height="100%" overflow="visible" style="display: block;" viewBox="0 0 21 20" fill="none" xmlns="http://www.w3.org/2000/svg">
<g id="Group">
<path id="Vector" opacity="0" d="M21 0H0V20H21V0Z" fill="var(--fill-0, black)"/>
<path id="Vector_2" d="M20.6158 7.01107C20.6158 11.5024 16.91 15.9199 11.0658 19.7153C10.8373 19.8524 10.5259 20 10.3079 20C10.0899 20 9.77853 19.8524 9.56053 19.7153C3.70588 15.9199 0 11.5024 0 7.01107C0 3.27886 2.52249 0.64312 5.78199 0.64312C7.80621 0.64312 9.38406 1.79231 10.3079 3.52135C11.2525 1.78176 12.8097 0.64312 14.8339 0.64312C18.0934 0.64312 20.6158 3.27886 20.6158 7.01107ZM11.3771 5.58777L7.10033 11.0385C7.01728 11.1334 6.97576 11.2493 6.97576 11.3442C6.97576 11.5446 7.13147 11.6922 7.3287 11.6922H9.97576L8.564 15.5403C8.37715 16.0464 8.91693 16.3311 9.23874 15.9199L13.5155 10.4692C13.5986 10.3637 13.6401 10.2478 13.6401 10.1529C13.6401 9.95255 13.4948 9.80495 13.2872 9.80495H10.6402L12.0519 5.95677C12.2491 5.45071 11.7093 5.17659 11.3771 5.58777Z" fill="var(--fill-0, white)"/>
</g>
</svg>
