<svg preserveAspectRatio="xMidYMid meet" width="100%" height="100%" overflow="visible" style="display: block;" viewBox="0 0 31 20" fill="none" xmlns="http://www.w3.org/2000/svg">
<g id="Group">
<path id="Vector" opacity="0" d="M31 0H0V20H31V0Z" fill="var(--fill-0, black)"/>
<path id="Vector_2" d="M24.8152 4.23641V5.30527C24.532 5.23574 24.2379 5.20094 23.9385 5.20094C23.3088 5.20094 22.7047 5.35582 22.1663 5.63782C22.0998 5.62985 22.0294 5.62648 21.9563 5.62648H8.67199C7.82385 5.62648 7.35689 6.08038 7.35689 6.95035V15.8676C7.35689 16.747 7.82385 17.1915 8.67199 17.1915H16.9382C16.8954 17.3987 16.877 17.6041 16.877 17.8062C16.877 18.1385 16.9444 18.4438 17.069 18.714H8.81493C6.82324 18.714 5.82262 17.7399 5.82262 15.7825V4.23641C5.82262 2.27896 6.82324 1.30497 8.81493 1.30497H21.8324C23.8242 1.30497 24.8152 2.28841 24.8152 4.23641ZM11.3021 14.2222V14.7802C11.3021 15.1111 11.1973 15.2151 10.8542 15.2151H10.3015C9.95851 15.2151 9.85371 15.1111 9.85371 14.7802V14.2222C9.85371 13.8912 9.95851 13.7966 10.3015 13.7966H10.8542C11.1973 13.7966 11.3021 13.8912 11.3021 14.2222ZM14.466 14.2222V14.7802C14.466 15.1111 14.3612 15.2151 14.0277 15.2151H13.4654C13.1318 15.2151 13.0175 15.1111 13.0175 14.7802V14.2222C13.0175 13.8912 13.1318 13.7966 13.4654 13.7966H14.0277C14.3612 13.7966 14.466 13.8912 14.466 14.2222ZM17.6394 14.2222V14.7802C17.6394 15.1111 17.5251 15.2151 17.1915 15.2151H16.6292C16.2957 15.2151 16.1813 15.1111 16.1813 14.7802V14.2222C16.1813 13.8912 16.2957 13.7966 16.6292 13.7966H17.1915C17.5251 13.7966 17.6394 13.8912 17.6394 14.2222ZM11.3021 11.13V11.6879C11.3021 12.0189 11.1973 12.1135 10.8542 12.1135H10.3015C9.95851 12.1135 9.85371 12.0189 9.85371 11.6879V11.13C9.85371 10.799 9.95851 10.7045 10.3015 10.7045H10.8542C11.1973 10.7045 11.3021 10.799 11.3021 11.13ZM14.466 11.13V11.6879C14.466 12.0189 14.3612 12.1135 14.0277 12.1135H13.4654C13.1318 12.1135 13.0175 12.0189 13.0175 11.6879V11.13C13.0175 10.799 13.1318 10.7045 13.4654 10.7045H14.0277C14.3612 10.7045 14.466 10.799 14.466 11.13ZM17.6394 11.13V11.6879C17.6394 12.0189 17.5251 12.1135 17.1915 12.1135H16.6292C16.2957 12.1135 16.1813 12.0189 16.1813 11.6879V11.13C16.1813 10.799 16.2957 10.7045 16.6292 10.7045H17.1915C17.5251 10.7045 17.6394 10.799 17.6394 11.13ZM20.7258 12.0017C20.6581 12.0844 20.5405 12.1135 20.3554 12.1135H19.7931C19.4596 12.1135 19.3548 12.0189 19.3548 11.6879V11.13C19.3548 10.799 19.4596 10.7045 19.7931 10.7045H20.0831C20.2248 11.1799 20.4434 11.6182 20.7258 12.0017ZM14.466 8.03782V8.59574C14.466 8.92671 14.3612 9.02128 14.0277 9.02128H13.4654C13.1318 9.02128 13.0175 8.92671 13.0175 8.59574V8.03782C13.0175 7.70685 13.1318 7.60283 13.4654 7.60283H14.0277C14.3612 7.60283 14.466 7.70685 14.466 8.03782ZM17.6394 8.03782V8.59574C17.6394 8.92671 17.5251 9.02128 17.1915 9.02128H16.6292C16.2957 9.02128 16.1813 8.92671 16.1813 8.59574V8.03782C16.1813 7.70685 16.2957 7.60283 16.6292 7.60283H17.1915C17.5251 7.60283 17.6394 7.70685 17.6394 8.03782ZM19.9178 9.02128H19.7931C19.4596 9.02128 19.3548 8.92671 19.3548 8.59574V8.03782C19.3548 7.70685 19.4596 7.60283 19.7931 7.60283H20.2984C20.0939 8.0351 19.9624 8.51319 19.9178 9.02128Z" fill="var(--fill-0, white)"/>
<path id="Vector_3" d="M19.3357 18.7045H28.5318C29.2561 18.7045 29.6944 18.3735 29.6944 17.8062C29.6944 16.0473 27.493 13.6265 23.9385 13.6265C20.3744 13.6265 18.173 16.0473 18.173 17.8062C18.173 18.3735 18.6115 18.7045 19.3357 18.7045ZM23.9385 12.4161C25.4061 12.4161 26.6831 11.1111 26.6831 9.40898C26.6831 7.73522 25.3966 6.49645 23.9385 6.49645C22.4805 6.49645 21.2035 7.75413 21.2035 9.4279C21.2035 11.1111 22.4709 12.4161 23.9385 12.4161Z" fill="var(--fill-0, white)"/>
</g>
</svg>
