<svg preserveAspectRatio="none" width="100%" height="100%" overflow="visible" style="display: block;" viewBox="0 0 10 6.00339" fill="none" xmlns="http://www.w3.org/2000/svg">
<g id="Group">
<path id="Vector" opacity="0" d="M10 0H0V6.00339H10V0Z" fill="var(--fill-0, black)"/>
<path id="Vector_2" d="M4.89854 6.00339C5.03947 6.00339 5.18039 5.947 5.27622 5.83992L9.63923 1.36979C9.73505 1.27396 9.79145 1.14995 9.79145 1.00902C9.79145 0.715894 9.57158 0.490417 9.27847 0.490417C9.13757 0.490417 9.00792 0.546788 8.9121 0.636982L4.59414 5.05074H5.1973L0.879371 0.636982C0.789179 0.546788 0.659528 0.490417 0.512966 0.490417C0.219842 0.490417 0 0.715894 0 1.00902C0 1.14995 0.0563698 1.27396 0.152199 1.37542L4.51523 5.83992C4.62233 5.947 4.75198 6.00339 4.89854 6.00339Z" fill="var(--fill-0, black)"/>
</g>
</svg>
