<svg preserveAspectRatio="xMidYMid meet" width="100%" height="100%" overflow="visible" style="display: block;" viewBox="0 0 7 10" fill="none" xmlns="http://www.w3.org/2000/svg">
<g id="Group">
<path id="Vector" opacity="0" d="M7 0H0V10H7V0Z" fill="var(--fill-0, black)"/>
<path id="Vector_2" d="M0 4.99712C0 5.14104 0.0496453 5.2677 0.154452 5.37708L4.52876 9.83882C4.62253 9.9424 4.74389 9.99422 4.8873 9.99422C5.17415 9.99422 5.39479 9.76973 5.39479 9.47037C5.39479 9.32064 5.33411 9.19401 5.24585 9.09614L1.2301 4.99712L5.24585 0.898101C5.33411 0.800229 5.39479 0.667816 5.39479 0.523892C5.39479 0.224525 5.17415 0 4.8873 0C4.74389 0 4.62253 0.0518134 4.52876 0.149683L0.154452 4.61715C0.0496453 4.72078 0 4.85319 0 4.99712Z" fill="var(--fill-0, #787878)" fill-opacity="0.2"/>
</g>
</svg>
