<svg preserveAspectRatio="xMidYMid meet" width="100%" height="100%" overflow="visible" style="display: block;" viewBox="0 0 20 20" fill="none" xmlns="http://www.w3.org/2000/svg">
<g id="Group">
<path id="Vector" opacity="0" d="M20 0H0V20H20V0Z" fill="var(--fill-0, black)"/>
<path id="Vector_2" d="M0 11.9095C0 13.0159 0.747044 13.7566 1.84397 13.7566H6.1182V18.1145C6.1182 19.2304 6.84633 19.9808 7.93381 19.9808H11.7163C12.8038 19.9808 13.5319 19.2304 13.5319 18.1145V13.7566H17.8156C18.9125 13.7566 19.6501 13.0159 19.6501 11.9095V8.06158C19.6501 6.95528 18.9125 6.21453 17.8156 6.21453H13.5319V1.86628C13.5319 0.750362 12.8038 0 11.7163 0H7.93381C6.84633 0 6.1182 0.750362 6.1182 1.86628V6.21453H1.83451C0.737589 6.21453 0 6.95528 0 8.06158V11.9095Z" fill="var(--fill-0, white)"/>
</g>
</svg>
