<svg preserveAspectRatio="none" width="100%" height="100%" overflow="visible" style="display: block;" viewBox="0 0 20 20" fill="none" xmlns="http://www.w3.org/2000/svg">
<g id="Group">
<path id="Vector" opacity="0" d="M20 0H0V20H20V0Z" fill="var(--fill-0, black)"/>
<path id="Vector_2" d="M19.6437 10.0049C19.6437 15.5219 15.2432 20 9.82186 20C4.41021 20 0 15.5219 0 10.0049C0 4.49777 4.41021 0.00976562 9.82186 0.00976562C15.2432 0.00976562 19.6437 4.49777 19.6437 10.0049ZM8.12711 4.52717C7.30862 4.52717 6.78864 5.00732 6.78864 5.81086V6.33021H5.72942C4.68946 6.33021 4.16948 6.84956 4.16948 7.90787V12.9348C4.16948 14.003 4.68946 14.5125 5.72942 14.5125H13.9143C14.9542 14.5125 15.4838 14.003 15.4838 12.9348V7.90787C15.4838 6.84956 14.9542 6.33021 13.9143 6.33021H12.8551V5.81086C12.8551 5.00732 12.3351 4.52717 11.5166 4.52717H8.12711ZM10.7078 8.46642V9.50513H11.7284C11.9981 9.50513 12.1715 9.68152 12.1715 9.94609V10.8672C12.1715 11.1416 11.9981 11.318 11.7284 11.318H10.7078V12.3567C10.7078 12.6212 10.5344 12.7976 10.2649 12.7976H9.37891C9.11893 12.7976 8.93597 12.6212 8.93597 12.3567V11.318H7.91526C7.64565 11.318 7.47231 11.1416 7.47231 10.8672V9.94609C7.47231 9.68152 7.64565 9.50513 7.91526 9.50513H8.93597V8.46642C8.93597 8.20185 9.11893 8.02546 9.37891 8.02546H10.2649C10.5344 8.02546 10.7078 8.20185 10.7078 8.46642ZM11.9018 5.85985V6.33021H7.75157V5.85985C7.75157 5.59527 7.91526 5.43849 8.19452 5.43849H11.4685C11.7381 5.43849 11.9018 5.59527 11.9018 5.85985Z" fill="var(--fill-0, white)" fill-opacity="0.85"/>
</g>
</svg>
