<svg preserveAspectRatio="none" width="100%" height="100%" overflow="visible" style="display: block;" viewBox="0 0 20 15" fill="none" xmlns="http://www.w3.org/2000/svg">
<g id="Group">
<path id="Vector" opacity="0" d="M20 0H0V15H20V0Z" fill="var(--fill-0, black)"/>
<path id="Vector_2" d="M0 8.22109V7.17002H3.01461L4.50939 3.60131C4.7098 3.12874 5.38622 3.13689 5.53653 3.57686L7.47389 9.31287L8.1002 7.61C8.2004 7.32483 8.37577 7.17002 8.71814 7.17002H10.6805L12.1837 3.60131C12.3758 3.12874 13.0605 3.13689 13.2025 3.57686L15.1482 9.31287L15.7662 7.61C15.8748 7.32483 16.0501 7.17002 16.3842 7.17002H19.691V8.22109H16.6847L15.6743 11.3254C15.524 11.7817 14.7808 11.7979 14.6388 11.3498L12.7014 5.27974L11.5992 7.7811C11.4822 8.06628 11.3236 8.22109 10.9812 8.22109H9.01042L7.99999 11.3254C7.84968 11.7817 7.11481 11.7979 6.97285 11.3498L5.02714 5.27974L3.97495 7.7811C3.84968 8.06628 3.69102 8.22109 3.18998 8.22109H0ZM2.62213 15H17.0688C18.8225 15 19.691 14.1608 19.691 12.4823V2.5258C19.691 0.847362 18.8225 0 17.0688 0H2.62213C0.876825 0 0 0.847362 0 2.5258V12.4823C0 14.1608 0.876825 15 2.62213 15Z" fill="var(--fill-0, white)"/>
</g>
</svg>
