<svg preserveAspectRatio="none" width="100%" height="100%" overflow="visible" style="display: block;" viewBox="0 0 8 9" fill="none" xmlns="http://www.w3.org/2000/svg">
<g id="Group">
<path id="Vector" opacity="0" d="M8 0H0V9H8V0Z" fill="var(--fill-0, black)"/>
<path id="Vector_2" d="M0.282353 5.30842H2.01961C2.19608 5.30842 2.30196 5.22483 2.34117 5.05773L2.94902 2.08315H2.91372L3.96078 8.77596C4.00784 9.07675 4.44315 9.0726 4.49804 8.77596L5.5098 3.7292L5.47843 3.72502L5.72941 5.02432C5.76471 5.21649 5.86667 5.30842 6.05099 5.30842H7.57253C7.72938 5.30842 7.85487 5.17888 7.85487 5.01598C7.85487 4.84883 7.73332 4.71934 7.57253 4.71934H6.10588L6.20001 4.78201L5.73331 2.59284C5.67452 2.3004 5.27058 2.30458 5.20392 2.60537L4.19217 7.40985H4.23919L3.18823 0.63346C3.14509 0.341015 2.7451 0.332659 2.68235 0.63346L1.83921 4.78201L1.89019 4.71934H0.282353C0.121568 4.71934 0 4.85303 0 5.01598C0 5.17888 0.121568 5.30842 0.282353 5.30842Z" fill="var(--fill-0, #D0381A)" fill-opacity="0.85"/>
</g>
</svg>
