<svg preserveAspectRatio="none" width="100%" height="100%" overflow="visible" style="display: block;" viewBox="0 0 11 14" fill="none" xmlns="http://www.w3.org/2000/svg">
<g id="Group">
<path id="Vector" opacity="0" d="M11 0H0V14H11V0Z" fill="var(--fill-0, black)"/>
<path id="Vector_2" d="M2.53753 13.489H8.2318C9.86477 13.489 10.7754 12.5489 10.7754 10.8518V5.99369C10.7754 4.30285 9.86477 3.35647 8.2318 3.35647H2.53753C0.904527 3.35647 0 4.30285 0 5.99369V10.8518C0 12.5489 0.904527 13.489 2.53753 13.489ZM5.39074 0C5.65177 0 5.87031 0.22082 5.87031 0.485805V6.90855L5.83389 7.84856L6.17384 7.47637L7.11479 6.43534C7.19977 6.33439 7.32117 6.28392 7.44264 6.28392C7.69148 6.28392 7.88574 6.47317 7.88574 6.72559C7.88574 6.86436 7.83116 6.96527 7.74009 7.05992L5.73676 9.06625C5.61534 9.19243 5.51215 9.23662 5.39074 9.23662C5.26325 9.23662 5.16005 9.19243 5.03864 9.06625L3.03532 7.05992C2.94426 6.96527 2.88963 6.86436 2.88963 6.72559C2.88963 6.47317 3.07175 6.28392 3.32671 6.28392C3.44813 6.28392 3.57561 6.33439 3.6606 6.43534L4.60155 7.47637L4.94151 7.84856L4.90508 6.90855V0.485805C4.90508 0.22082 5.12969 0 5.39074 0Z" fill="var(--fill-0, black)" fill-opacity="0.85"/>
</g>
</svg>
