<svg preserveAspectRatio="none" width="100%" height="100%" overflow="visible" style="display: block;" viewBox="0 0 12 12" fill="none" xmlns="http://www.w3.org/2000/svg">
<g id="image 9 [Vectorized]" clip-path="url(#clip0_0_7)">
<path id="Vector" d="M0.582374 0H11.418C11.5241 0.0331778 11.6055 0.0524694 11.6851 0.127688C11.9807 0.407463 11.8494 0.729832 11.6238 0.99941C11.5893 1.04074 11.5417 1.11521 11.5099 1.15995L11.1375 1.68418L8.79416 4.98459L8.1709 5.86195C8.06742 6.00762 7.96008 6.16582 7.8542 6.30896C7.60283 6.64898 7.61906 6.93516 7.61924 7.33465L7.61959 7.9718L7.61953 9.99691L7.61982 10.429C7.61982 10.5435 7.62891 10.6789 7.60078 10.7893C7.53574 11.0441 7.34947 11.0999 7.13221 11.1823L6.73687 11.3326L5.42283 11.8341C5.32837 11.8706 5.23369 11.9065 5.1388 11.9418C5.10918 11.9526 4.99961 11.9868 4.97962 12H4.8055C4.77377 11.9845 4.73015 11.9704 4.69658 11.9563C4.35609 11.8144 4.3901 11.5033 4.39045 11.202L4.39099 10.7189L4.39088 8.09584L4.39111 7.38732C4.39116 7.18922 4.40247 6.92772 4.35815 6.7401C4.3324 6.62918 4.28952 6.52301 4.23105 6.42527C4.13025 6.25881 3.95805 6.03053 3.84299 5.86852L3.14097 4.87999L0.93982 1.77915L0.47304 1.12199C0.440416 1.07604 0.405928 1.02952 0.37434 0.982951C0.310692 0.887467 0.228108 0.7936 0.18738 0.685477C0.0969147 0.445305 0.207083 0.152605 0.445032 0.0473531C0.488667 0.0280516 0.53755 0.0170689 0.582374 0Z" fill="var(--fill-0, black)"/>
</g>
<defs>
<clipPath id="clip0_0_7">
<rect width="12" height="12" fill="white"/>
</clipPath>
</defs>
</svg>
