<svg preserveAspectRatio="none" width="100%" height="100%" overflow="visible" style="display: block;" viewBox="0 0 20 17" fill="none" xmlns="http://www.w3.org/2000/svg">
<g id="Group">
<path id="Vector" opacity="0" d="M20 0H0V17H20V0Z" fill="var(--fill-0, black)"/>
<path id="Vector_2" d="M19.6975 10.1983C19.6975 7.70803 18.8307 5.41255 17.3835 3.63378C17.22 3.4305 16.942 3.4305 16.762 3.62532L14.8651 5.59043C14.7098 5.75137 14.7016 5.98007 14.8406 6.15795C15.6828 7.27604 16.1897 8.68215 16.1897 10.1983C16.1897 11.723 15.6828 13.129 14.7915 14.3064C14.677 14.4505 14.6852 14.6368 14.8078 14.7723L16.7539 16.7883C16.942 16.9831 17.2118 16.9831 17.3835 16.7713C18.8307 14.9926 19.6975 12.6971 19.6975 10.1983Z" fill="var(--fill-0, white)"/>
<path id="Vector_3" d="M9.84464 3.63378C11.3246 3.63378 12.682 4.16742 13.7694 5.03987C13.9329 5.17539 14.1455 5.15845 14.3009 4.99751L16.1979 3.03238C16.3859 2.83757 16.3777 2.55805 16.1816 2.38864C14.4727 0.897861 12.2568 0 9.84464 0C7.44073 0 5.22486 0.897861 3.51595 2.38864C3.31971 2.55805 3.31153 2.83757 3.4996 3.03238L5.39657 4.99751C5.55193 5.15845 5.77269 5.17539 5.95258 5.03139C7.0319 4.16742 8.38107 3.63378 9.84464 3.63378Z" fill="var(--fill-0, white)"/>
<path id="Vector_4" d="M0 10.1983C0 12.6971 0.866725 14.9926 2.31398 16.7713C2.47751 16.9831 2.75553 16.9831 2.93541 16.7883L4.88144 14.7723C5.00409 14.6368 5.02044 14.4505 4.90598 14.3064C4.01472 13.129 3.50777 11.723 3.50777 10.1983C3.50777 8.68215 4.00655 7.27604 4.85691 6.15795C4.98774 5.98007 4.98774 5.75137 4.83238 5.59043L2.93541 3.62532C2.74734 3.4305 2.47751 3.4305 2.31398 3.63378C0.866725 5.41255 0 7.70803 0 10.1983Z" fill="var(--fill-0, white)"/>
</g>
</svg>
