<svg preserveAspectRatio="xMidYMid meet" width="100%" height="100%" overflow="visible" style="display: block;" viewBox="0 0 20 20" fill="none" xmlns="http://www.w3.org/2000/svg">
<g id="image 10 [Vectorized]" clip-path="url(#clip0_0_19)">
<path id="Vector" d="M17.6667 1.46341C17.5587 1.43982 17.2734 1.41936 17.1486 1.4071L16.1426 1.30749C15.8363 1.27783 15.5557 1.29439 15.3459 1.03968C15.1982 0.860373 15.1662 0.633396 15.2466 0.41978C15.3035 0.266305 15.4193 0.141898 15.5684 0.0741978C15.6661 0.0302416 15.7485 0.0157835 15.8567 0.0215223C16.0545 0.0320161 16.2596 0.0566888 16.4562 0.0777311L17.2762 0.160465L18.7388 0.308941C18.8925 0.324576 19.0677 0.345445 19.2202 0.357375C19.6747 0.392916 19.8341 0.466503 20 0.890074V1.12072C19.9564 1.2181 19.9298 1.37788 19.9063 1.4861C19.8707 1.65155 19.8342 1.81683 19.7968 1.98189L19.3406 4.02262C19.2969 4.21837 19.2535 4.4203 19.2053 4.61418C19.0548 5.21973 18.2516 5.28519 18.0127 4.70461C17.9221 4.48352 18.013 4.26068 18.0539 4.03895C18.1647 3.51767 18.2959 2.99817 18.4018 2.47609L16.5132 3.83791L15.9336 4.25576C15.8423 4.3217 15.697 4.42055 15.6152 4.49047C15.7849 4.81075 15.8986 5.04442 16.019 5.38959C16.3999 6.49556 16.4207 7.69371 16.0786 8.81225C15.6442 10.2104 14.6754 11.3805 13.3828 12.068C12.2411 12.6706 10.9253 12.8568 9.6612 12.5947C8.86883 13.4193 8.12169 13.9402 7.00269 14.2646C6.77322 14.3312 6.38128 14.4169 6.14624 14.4371C6.14004 14.5368 6.1419 14.6344 6.14132 14.734C6.13837 15.2335 6.14601 15.734 6.14071 16.2334C6.53506 16.2379 6.92943 16.2392 7.3238 16.2373C7.58765 16.2372 7.91467 16.2213 8.16902 16.2637C8.26575 16.2798 8.38375 16.3575 8.45365 16.4286C8.57042 16.5466 8.63484 16.7065 8.63244 16.8726C8.62859 17.1467 8.43195 17.4069 8.15854 17.4729C8.03377 17.5029 7.85704 17.494 7.72571 17.494L7.18427 17.4938C6.86155 17.4937 6.49129 17.5051 6.17652 17.4986C6.16517 17.4982 6.15382 17.4978 6.14247 17.4972L6.14217 18.7673C6.1422 18.8995 6.14112 19.0349 6.14215 19.1668C6.14408 19.4183 6.1466 19.6096 5.95548 19.798C5.83574 19.918 5.67247 19.9843 5.50299 19.9818C5.32346 19.9776 5.15874 19.8894 5.03997 19.7573C4.85857 19.5557 4.89634 19.3096 4.89212 19.0599C4.89044 18.9601 4.89217 18.8566 4.89227 18.7554L4.89342 17.4975C4.45655 17.4928 4.01966 17.4916 3.58277 17.4939C3.50626 17.494 3.42723 17.4938 3.35266 17.4941C3.05979 17.4955 2.79055 17.5271 2.57153 17.2912C2.45547 17.1662 2.39916 17.0234 2.40348 16.8511C2.40782 16.6834 2.47813 16.5241 2.59915 16.408C2.81731 16.2006 3.14361 16.2293 3.425 16.2365C3.89715 16.2487 4.38078 16.2218 4.85088 16.2385C4.86438 16.239 4.87789 16.2396 4.89139 16.2402C4.88642 16.0555 4.89284 15.8435 4.89285 15.6555L4.89257 14.4359C4.56337 14.386 4.29247 14.3398 3.97049 14.2456C2.80942 13.9029 1.79225 13.19 1.07399 12.2155C0.597838 11.5714 0.268356 10.8309 0.108655 10.0459C0.0836609 9.92588 0.0188104 9.41123 0 9.3696V8.52821C0.0293254 8.45712 0.0494779 8.2013 0.063755 8.10687C0.277433 6.69338 1.05916 5.399 2.19339 4.54221C3.17436 3.80165 4.37464 3.4101 5.60359 3.42977C6.0357 3.43934 6.25021 3.485 6.66191 3.54208C6.66969 3.53297 6.67754 3.52393 6.68546 3.51495C7.65327 2.4279 9.01214 1.76828 10.4649 1.68033C11.7974 1.5978 13.1144 2.00268 14.1703 2.81944C14.3217 2.93594 14.4664 3.06071 14.6039 3.19319C14.6912 3.27727 14.7829 3.37841 14.8726 3.45654L14.8821 3.46473C14.9703 3.41229 15.0837 3.32488 15.1691 3.26263L15.6151 2.94024L16.9441 1.98143C17.1724 1.8166 17.4349 1.61733 17.6667 1.46341ZM10.4353 11.4413C10.9543 11.4689 11.3411 11.4512 11.8534 11.3251C12.9505 11.0421 13.8918 10.3382 14.4735 9.36602C15.0499 8.39471 15.2172 7.23442 14.939 6.13983C14.6586 5.04196 13.9545 4.1 12.9809 3.52034C12.2351 3.07716 11.3718 2.87231 10.5063 2.93325C10.2499 2.96045 10.0558 2.98465 9.80313 3.04244C9.15787 3.19002 8.44719 3.55026 7.96398 4.00731C8.11987 4.06972 8.38156 4.22976 8.52435 4.32261C9.43984 4.91937 10.1589 5.77304 10.5913 6.77666C11.1666 8.12172 11.1839 9.64021 10.6396 10.998C10.5871 11.1287 10.5061 11.3217 10.4353 11.4413ZM4.98782 13.1812C6.17828 13.3037 7.26593 13.0195 8.2031 12.2575C8.25323 12.217 8.30152 12.1741 8.34783 12.1293C7.02345 11.4691 6.01808 10.3067 5.55568 8.90103C5.10781 7.53076 5.21753 6.00419 5.87368 4.71C5.87604 4.70565 5.8784 4.70131 5.88075 4.69696C5.68088 4.68415 5.44208 4.67821 5.24187 4.69192C4.96386 4.71969 4.76067 4.74312 4.48708 4.80949C3.595 5.02938 2.79836 5.53281 2.21686 6.24416C1.49961 7.11878 1.15951 8.24267 1.27148 9.36821C1.38394 10.4997 1.94371 11.5394 2.82638 12.2561C3.44502 12.7624 4.19442 13.0832 4.98782 13.1812ZM9.18269 11.1317C9.77148 10.0864 9.95439 8.96513 9.62756 7.79738C9.31646 6.70096 8.58242 5.7731 7.58701 5.21804C7.44216 5.1363 7.29161 5.06506 7.13655 5.00489C6.55021 6.04519 6.3658 7.16998 6.69144 8.33319C7.00022 9.42628 7.72925 10.3526 8.71911 10.9098C8.83462 10.9746 9.05853 11.0912 9.18269 11.1317Z" fill="var(--fill-0, white)"/>
</g>
<defs>
<clipPath id="clip0_0_19">
<rect width="20" height="20" fill="white"/>
</clipPath>
</defs>
</svg>
