<svg preserveAspectRatio="none" width="100%" height="100%" overflow="visible" style="display: block;" viewBox="0 0 13 20" fill="none" xmlns="http://www.w3.org/2000/svg">
<g id="Group">
<path id="Vector" opacity="0" d="M13 0H0V20H13V0Z" fill="var(--fill-0, black)"/>
<path id="Vector_2" d="M2.4427 2.29225V3.22174C2.4427 4.21426 3.08552 4.91533 4.02327 4.91533H8.69695C9.63467 4.91533 10.2775 4.21426 10.2775 3.22174V2.29225C10.2775 2.26073 10.2775 2.22135 10.2775 2.18984H10.4514C11.9412 2.18984 12.7202 3.00906 12.7202 4.66326V16.6129C12.7202 18.2671 11.9412 19.0863 10.3758 19.0863H2.34438C0.778942 19.0863 0 18.2671 0 16.6129V4.66326C0 3.00906 0.778942 2.18984 2.26876 2.18984H2.4427C2.4427 2.22135 2.4427 2.26073 2.4427 2.29225ZM2.91914 15.2501C2.64689 15.2501 2.42758 15.4786 2.42758 15.7621C2.42758 16.0378 2.65445 16.2662 2.91914 16.2662H6.85166C7.11635 16.2662 7.33567 16.0378 7.33567 15.7621C7.33567 15.4786 7.12391 15.2501 6.85166 15.2501H2.91914ZM2.91914 12.2174C2.64689 12.2174 2.42758 12.438 2.42758 12.7137C2.42758 12.9973 2.64689 13.2257 2.91914 13.2257H9.80101C10.0733 13.2257 10.2926 12.9973 10.2926 12.7137C10.2926 12.438 10.0733 12.2174 9.80101 12.2174H2.91914ZM4.49215 7.53841C4.30309 7.1603 3.97033 6.90824 3.55439 6.90824C2.91158 6.90824 2.43514 7.42812 2.43514 8.14498C2.43514 9.20044 3.52414 10.1221 4.30309 10.6893C4.37115 10.7444 4.44678 10.7759 4.49971 10.7759C4.55265 10.7759 4.62071 10.7365 4.68878 10.6893C5.48284 10.1773 6.54916 9.20044 6.54916 8.14498C6.54916 7.42812 6.07272 6.90824 5.41478 6.90824C5.01396 6.90824 4.68121 7.1603 4.49215 7.53841ZM8.00114 1.61481H8.69695C9.13557 1.61481 9.40026 1.90626 9.40026 2.39465V3.22174C9.40026 3.71013 9.13557 4.00158 8.69695 4.00158H4.02327C3.58465 4.00158 3.31996 3.71013 3.31996 3.22174V2.39465C3.31996 1.90626 3.58465 1.61481 4.02327 1.61481H4.71903C4.77196 0.724696 5.48284 0 6.3601 0C7.23735 0 7.94825 0.724696 8.00114 1.61481ZM5.70215 1.67783C5.70215 2.04805 5.99709 2.36314 6.3601 2.36314C6.7231 2.36314 7.01804 2.04805 7.01804 1.67783C7.01804 1.29185 6.7231 0.984638 6.3601 0.984638C5.99709 0.984638 5.70215 1.29185 5.70215 1.67783Z" fill="var(--fill-0, white)"/>
</g>
</svg>
