<svg preserveAspectRatio="xMidYMid meet" width="100%" height="100%" overflow="visible" style="display: block;" viewBox="0 0 20 20" fill="none" xmlns="http://www.w3.org/2000/svg">
<g id="Group">
<path id="Vector" opacity="0" d="M20 0H0V20H20V0Z" fill="var(--fill-0, black)"/>
<path id="Vector_2" d="M19.6437 9.99512C19.6437 15.5022 15.2432 19.9903 9.82186 19.9903C4.41021 19.9903 0 15.5022 0 9.99512C0 4.47821 4.41021 0 9.82186 0C15.2432 0 19.6437 4.47821 19.6437 9.99512ZM9.82186 7.06518C9.32113 6.14406 8.50265 5.52671 7.4338 5.52671C5.74868 5.52671 4.53539 6.82021 4.53539 8.61344C4.53539 11.2592 7.28936 13.709 9.32113 15.0221C9.49447 15.1298 9.71594 15.267 9.84112 15.267C9.96628 15.267 10.1589 15.1397 10.313 15.0221C12.3351 13.6796 15.1084 11.2592 15.1084 8.61344C15.1084 6.82021 13.8854 5.52671 12.2099 5.52671C11.1507 5.52671 10.313 6.14406 9.82186 7.06518Z" fill="var(--fill-0, white)"/>
</g>
</svg>
