<svg preserveAspectRatio="xMidYMid meet" width="100%" height="100%" overflow="visible" style="display: block;" viewBox="0 0 20 20" fill="none" xmlns="http://www.w3.org/2000/svg">
<g id="Group">
<path id="Vector" opacity="0" d="M20 0H0V20H20V0Z" fill="var(--fill-0, black)"/>
<path id="Vector_2" d="M19.6437 9.99512C19.6437 15.5022 15.2432 19.9903 9.82186 19.9903C4.41021 19.9903 0 15.5022 0 9.99512C0 4.47821 4.41021 0 9.82186 0C15.2432 0 19.6437 4.47821 19.6437 9.99512ZM9.51373 6.05587L5.20943 9.73055V13.9442C5.20943 14.6693 5.65238 15.1103 6.38421 15.1103H13.2691C14.0009 15.1103 14.4439 14.6693 14.4439 13.9442V9.74034L10.1396 6.05587C9.93739 5.87949 9.71594 5.88928 9.51373 6.05587ZM11.1699 10.8379V14.0912H8.4834V10.8379C8.4834 10.6027 8.63746 10.4361 8.8782 10.4361H10.7751C11.0351 10.4361 11.1699 10.6027 11.1699 10.8379ZM9.11893 4.20383L3.7169 8.80943C3.60135 8.91722 3.55321 9.05441 3.55321 9.18179C3.55321 9.41698 3.72653 9.65215 4.02504 9.65215C4.18874 9.65215 4.30428 9.55416 4.41984 9.45617L9.59075 5.04656C9.75446 4.89957 9.9085 4.91916 10.0626 5.04656L15.2239 9.45617C15.3587 9.55416 15.4743 9.65215 15.6283 9.65215C15.8883 9.65215 16.1001 9.46596 16.1001 9.20139C16.1001 9.03481 16.052 8.91722 15.9364 8.80943L14.4439 7.54534V5.43852C14.4439 5.21314 14.2899 5.05635 14.0684 5.05635H13.5099C13.2788 5.05635 13.1247 5.21314 13.1247 5.43852V6.41843L10.5344 4.20383C10.1107 3.83146 9.55224 3.83146 9.11893 4.20383Z" fill="var(--fill-0, white)"/>
</g>
</svg>
