<svg preserveAspectRatio="none" width="100%" height="100%" overflow="visible" style="display: block;" viewBox="0 0 8 7" fill="none" xmlns="http://www.w3.org/2000/svg">
<g id="Group">
<path id="Vector" opacity="0" d="M8 0H0V7H8V0Z" fill="var(--fill-0, black)"/>
<path id="Vector_2" d="M3.04825 6.45796V4.50264C3.04825 4.34964 3.15052 4.2499 3.30227 4.2499H4.57898C4.73404 4.2499 4.82971 4.34964 4.82971 4.50264V6.45796H3.04825ZM1.02928 6.26178C1.02928 6.72401 1.30639 6.99336 1.77155 6.99336H6.10969C6.57486 6.99336 6.84866 6.72401 6.84866 6.26178V3.6214L4.13692 1.33017C4.01155 1.22376 3.86308 1.22708 3.74103 1.33017L1.02928 3.6214V6.26178ZM0.283712 3.55156C0.376083 3.55156 0.451959 3.50167 0.521238 3.44514L3.82353 0.648458C3.85981 0.61853 3.90268 0.601902 3.93899 0.601902C3.97855 0.601902 4.01814 0.61853 4.05446 0.648458L7.36001 3.44514C7.42598 3.50167 7.50186 3.55156 7.59425 3.55156C7.77238 3.55156 7.87795 3.42185 7.87795 3.28552C7.87795 3.20903 7.84825 3.12922 7.77238 3.06936L4.33484 0.15962C4.20948 0.0532068 4.07422 0 3.93899 0C3.80373 0 3.66847 0.0532068 3.54311 0.15962L0.105567 3.06936C0.0329897 3.12922 0 3.20903 0 3.28552C0 3.42185 0.105567 3.55156 0.283712 3.55156ZM6.08662 1.78575L6.91467 2.49074V0.990977C6.91467 0.844658 6.82228 0.751545 6.67712 0.751545H6.32413C6.18228 0.751545 6.08662 0.844658 6.08662 0.990977V1.78575Z" fill="var(--fill-0, #19A589)"/>
</g>
</svg>
