<svg preserveAspectRatio="xMidYMid meet" width="100%" height="100%" overflow="visible" style="display: block;" viewBox="0 0 20 19" fill="none" xmlns="http://www.w3.org/2000/svg">
<g id="Group">
<path id="Vector" opacity="0" d="M20 0H0V19H20V0Z" fill="var(--fill-0, black)"/>
<path id="Vector_2" d="M0 17.5563C0 18.2636 0.396788 18.6706 1.077 18.6706C1.32263 18.6706 1.55881 18.593 1.87057 18.4187L5.83846 16.2193V0.164712C5.66841 0.251912 5.47946 0.348801 5.30941 0.445691L0.831366 3.08108C0.264526 3.40081 0 3.86588 0 4.51504V17.5563ZM7.13275 16.0352L11.8942 18.7772C12.0359 18.8547 12.1871 18.9225 12.3287 18.9612V3.1489L7.66179 0.222845C7.5012 0.116268 7.31224 0.0387557 7.13275 0V16.0352ZM13.6137 18.9321C13.7081 18.9031 13.812 18.8644 13.897 18.8062L18.8191 15.9383C19.386 15.6186 19.6505 15.1534 19.6505 14.5043V1.45334C19.6505 0.736359 19.2536 0.339113 18.5735 0.339113C18.3278 0.339113 18.0917 0.416624 17.7799 0.591025L13.6137 2.96481V18.9321Z" fill="var(--fill-0, white)"/>
</g>
</svg>
