<svg preserveAspectRatio="xMidYMid meet" width="100%" height="100%" overflow="visible" style="display: block;" viewBox="0 0 15.715 15.9922" fill="none" xmlns="http://www.w3.org/2000/svg">
<path id="Vector" d="M15.715 7.9961C15.715 12.4018 12.1945 15.9922 7.85749 15.9922C3.52817 15.9922 0 12.4018 0 7.9961C0 3.58256 3.52817 0 7.85749 0C12.1945 0 15.715 3.58256 15.715 7.9961ZM10.2532 4.88389L6.96389 10.2617L5.40009 8.20775C5.20751 7.94906 5.03804 7.8785 4.81464 7.8785C4.46798 7.8785 4.19837 8.16858 4.19837 8.5213C4.19837 8.7016 4.2677 8.87411 4.38325 9.03089L6.3168 11.4454C6.51709 11.7198 6.73279 11.8295 6.99471 11.8295C7.25662 11.8295 7.48002 11.7041 7.64179 11.4454L11.2624 5.6443C11.3548 5.47968 11.455 5.29937 11.455 5.12691C11.455 4.75846 11.1392 4.52329 10.8002 4.52329C10.5999 4.52329 10.3996 4.64871 10.2532 4.88389Z" fill="url(#paint0_linear_0_4)"/>
<defs>
<linearGradient id="paint0_linear_0_4" x1="0.687299" y1="-1.84526" x2="16.0146" y2="-1.56227" gradientUnits="userSpaceOnUse">
<stop stop-color="#33C360"/>
<stop offset="1" stop-color="#1EA84C"/>
</linearGradient>
</defs>
</svg>
