<svg preserveAspectRatio="xMidYMid meet" width="100%" height="100%" overflow="visible" style="display: block;" viewBox="0 0 12 20" fill="none" xmlns="http://www.w3.org/2000/svg">
<g id="Group">
<path id="Vector" opacity="0" d="M12 0H0V20H12V0Z" fill="var(--fill-0, black)"/>
<path id="Vector_2" d="M11.7417 5.11008V16.0592C11.7417 17.5749 11.0227 18.3255 9.57764 18.3255H2.16405C0.719023 18.3255 0 17.5749 0 16.0592V5.11008C0 3.59438 0.719023 2.84375 2.16405 2.84375H2.2574C2.25082 2.90463 2.24782 2.96734 2.24782 3.0314V3.78925C2.24782 4.69867 2.86213 5.34104 3.71379 5.34104H8.02795C8.8796 5.34104 9.49386 4.69867 9.49386 3.78925V3.0314C9.49386 2.96734 9.49093 2.90463 9.48428 2.84375H9.57764C11.0227 2.84375 11.7417 3.59438 11.7417 5.11008ZM2.2199 13.7351C2.2199 14.0816 2.49913 14.3703 2.8342 14.3703C3.16928 14.3703 3.44852 14.0888 3.44852 13.7351C3.44852 13.3887 3.16928 13.1 2.8342 13.1C2.49913 13.1 2.2199 13.3959 2.2199 13.7351ZM4.76091 13.2732C4.50262 13.2732 4.30017 13.4825 4.30017 13.7351C4.30017 13.9878 4.5096 14.2043 4.76091 14.2043H9.07504C9.31937 14.2043 9.52181 13.9878 9.52181 13.7351C9.52181 13.4825 9.32638 13.2732 9.07504 13.2732H4.76091ZM2.2199 10.9492C2.2199 11.2956 2.49215 11.5843 2.8342 11.5843C3.16928 11.5843 3.44852 11.2956 3.44852 10.9492C3.44852 10.5954 3.16928 10.3212 2.8342 10.3212C2.49215 10.3212 2.2199 10.6027 2.2199 10.9492ZM4.76091 10.4872C4.50262 10.4872 4.30017 10.6893 4.30017 10.9492C4.30017 11.209 4.50262 11.4183 4.76091 11.4183H9.07504C9.32638 11.4183 9.52181 11.209 9.52181 10.9492C9.52181 10.6893 9.32638 10.4872 9.07504 10.4872H4.76091ZM2.2199 8.3147C2.2199 8.65394 2.49913 8.94987 2.8342 8.94987C3.16928 8.94987 3.44852 8.66119 3.44852 8.3147C3.44852 7.96105 3.16928 7.67953 2.8342 7.67953C2.49913 7.67953 2.2199 7.96822 2.2199 8.3147ZM4.76091 7.83836C4.5096 7.83836 4.30017 8.06208 4.30017 8.3147C4.30017 8.56732 4.5096 8.77663 4.76091 8.77663H9.07504C9.31937 8.77663 9.52181 8.56732 9.52181 8.3147C9.52181 8.06208 9.31937 7.83836 9.07504 7.83836H4.76091Z" fill="var(--fill-0, white)"/>
<path id="Vector_3" d="M7.38567 2.31686H8.02795C8.43283 2.31686 8.67716 2.58391 8.67716 3.0314V3.78925C8.67716 4.23674 8.43283 4.5038 8.02795 4.5038H3.71379C3.30891 4.5038 3.06457 4.23674 3.06457 3.78925V3.0314C3.06457 2.58391 3.30891 2.31686 3.71379 2.31686H4.35602C4.40489 1.50127 5.06109 0.837242 5.87086 0.837242C6.68063 0.837242 7.33685 1.50127 7.38567 2.31686ZM5.26353 2.3746C5.26353 2.71383 5.53578 3.00253 5.87086 3.00253C6.20594 3.00253 6.47819 2.71383 6.47819 2.3746C6.47819 2.02094 6.20594 1.73945 5.87086 1.73945C5.53578 1.73945 5.26353 2.02094 5.26353 2.3746Z" fill="var(--fill-0, white)"/>
</g>
</svg>
