<svg preserveAspectRatio="xMidYMid meet" width="100%" height="100%" overflow="visible" style="display: block;" viewBox="0 0 19 16" fill="none" xmlns="http://www.w3.org/2000/svg">
<g id="Group">
<path id="Vector" opacity="0" d="M19 0H0V16H19V0Z" fill="var(--fill-0, black)"/>
<path id="Vector_2" d="M0.548465 6.48311C-0.00666996 6.48311 -0.145453 6.86724 0.155244 7.30623L1.88233 9.79911C2.13677 10.1597 2.50686 10.1519 2.75359 9.79911L4.47296 7.2984C4.77366 6.86724 4.62716 6.48311 4.08745 6.48311H0.548465ZM17.2256 7.9961C17.2256 3.58256 13.702 0 9.36124 0C5.02038 0 1.50453 3.57472 1.49682 8.00393C1.50453 8.37239 1.78981 8.66243 2.14448 8.66243C2.50686 8.66243 2.80756 8.36453 2.80756 7.9961C2.80756 4.31162 5.73743 1.33269 9.36124 1.33269C12.985 1.33269 15.9149 4.31162 15.9149 7.9961C15.9149 11.6806 12.985 14.6595 9.36124 14.6595C7.16382 14.6595 5.22856 13.562 4.05661 11.9001C3.81759 11.5786 3.45521 11.4768 3.13138 11.6727C2.82298 11.8688 2.73045 12.3156 2.9926 12.6605C4.4267 14.683 6.71663 15.9922 9.36124 15.9922C13.702 15.9922 17.2256 12.4096 17.2256 7.9961Z" fill="var(--fill-0, #8E8E93)"/>
<path id="Vector_3" d="M9.36124 3.4101C9.00659 3.4101 8.72125 3.69232 8.72125 4.05292V8.48213C8.72125 8.67029 8.78299 8.82707 8.91405 9.00737L10.7799 11.5081C11.0498 11.8688 11.4276 11.9236 11.7514 11.6962C12.0367 11.4924 12.0675 11.1004 11.8285 10.7634L9.29184 7.27488L9.99349 9.46204V4.05292C9.99349 3.69232 9.70816 3.4101 9.36124 3.4101Z" fill="var(--fill-0, #8E8E93)"/>
</g>
</svg>
