<svg preserveAspectRatio="xMidYMid meet" width="100%" height="100%" overflow="visible" style="display: block;" viewBox="0 0 20 20" fill="none" xmlns="http://www.w3.org/2000/svg">
<g id="Group">
<path id="Vector" opacity="0" d="M20 0H0V20H20V0Z" fill="var(--fill-0, black)"/>
<path id="Vector_2" d="M19.6437 9.99512C19.6437 15.5022 15.2432 19.9903 9.82186 19.9903C4.41021 19.9903 0 15.5022 0 9.99512C0 4.47821 4.41021 0 9.82186 0C15.2432 0 19.6437 4.47821 19.6437 9.99512ZM12.6722 5.99707L9.83229 8.86654L7.00048 5.99707C6.84641 5.84028 6.65383 5.7619 6.44198 5.7619C5.99903 5.7619 5.64276 6.11466 5.64276 6.55562C5.64276 6.781 5.72942 6.97698 5.87386 7.13378L8.70043 10.0102L5.87386 12.8663C5.72942 13.0329 5.64276 13.219 5.64276 13.4444C5.64276 13.8952 5.99903 14.2676 6.44198 14.2676C6.67309 14.2676 6.86567 14.1696 7.01974 14.0226L9.82948 11.1592L12.6433 14.0226C12.7973 14.1696 12.9899 14.2676 13.221 14.2676C13.6544 14.2676 14.0106 13.8952 14.0106 13.4444C14.0106 13.219 13.9336 13.0329 13.7795 12.8663L10.9589 10.0082L13.7795 7.13378C13.9336 6.97698 14.0106 6.781 14.0106 6.55562C14.0106 6.11466 13.6544 5.7619 13.221 5.7619C12.9995 5.7619 12.8165 5.84028 12.6722 5.99707Z" fill="var(--fill-0, white)"/>
</g>
</svg>
