<svg preserveAspectRatio="xMidYMid meet" width="100%" height="100%" overflow="visible" style="display: block;" viewBox="0 0 15 14" fill="none" xmlns="http://www.w3.org/2000/svg">
<g id="Group">
<path id="Vector" opacity="0" d="M15 0H0V14H15V0Z" fill="var(--fill-0, black)"/>
<path id="Vector_2" d="M14.4387 13.191C14.4387 12.8614 14.162 12.6142 13.7853 12.6142H3.4367C3.05998 12.6142 2.7832 12.8614 2.7832 13.191C2.7832 13.5206 3.05998 13.7753 3.4367 13.7753H13.7853C14.162 13.7753 14.4387 13.5206 14.4387 13.191Z" fill="var(--fill-0, black)"/>
<path id="Vector_3" d="M1.81446 13.191C1.81446 12.749 1.44542 12.3745 0.976421 12.3745C0.522809 12.3745 0.153767 12.749 0.153767 13.191C0.153767 13.6404 0.522809 14 0.976421 14C1.44542 14 1.81446 13.6404 1.81446 13.191Z" fill="var(--fill-0, black)"/>
<path id="Vector_4" d="M14.4387 10.2546C14.4387 9.9251 14.162 9.67789 13.7853 9.67789H3.4367C3.05998 9.67789 2.7832 9.9251 2.7832 10.2546C2.7832 10.5842 3.05998 10.839 3.4367 10.839H13.7853C14.162 10.839 14.4387 10.5842 14.4387 10.2546Z" fill="var(--fill-0, black)"/>
<path id="Vector_5" d="M1.81446 10.2546C1.81446 9.81273 1.44542 9.4457 0.976421 9.4457C0.522809 9.4457 0.153767 9.81273 0.153767 10.2546C0.153767 10.7041 0.522809 11.0562 0.976421 11.0562C1.44542 11.0562 1.81446 10.7041 1.81446 10.2546Z" fill="var(--fill-0, black)"/>
<path id="Vector_6" d="M2.12968 0.179775C0.561252 0.179775 0 0.846443 0 2.29962V5.78275C0 7.23593 0.561252 7.90257 2.12968 7.90257H12.5859C14.1543 7.90257 14.7156 7.23593 14.7156 5.78275V2.29962C14.7156 0.846443 14.1543 0.179775 12.5859 0.179775H2.12968ZM1.23783 5.82021V2.26217C1.23783 1.5955 1.46079 1.30337 2.13737 1.30337H12.5782C13.2547 1.30337 13.4777 1.5955 13.4777 2.26217V5.82021C13.4777 6.48687 13.2547 6.77901 12.5782 6.77901H2.13737C1.46079 6.77901 1.23783 6.48687 1.23783 5.82021Z" fill="var(--fill-0, black)"/>
</g>
</svg>
