<svg preserveAspectRatio="xMidYMid meet" width="100%" height="100%" overflow="visible" style="display: block;" viewBox="0 0 20 20" fill="none" xmlns="http://www.w3.org/2000/svg">
<g id="Group">
<path id="Vector" opacity="0" d="M20 0H0V20H20V0Z" fill="var(--fill-0, black)"/>
<path id="Vector_2" d="M19.6437 9.99512C19.6437 15.5022 15.2432 19.9903 9.82186 19.9903C4.41021 19.9903 0 15.5022 0 9.99512C0 4.47821 4.41021 0 9.82186 0C15.2432 0 19.6437 4.47821 19.6437 9.99512ZM12.8165 6.10486L8.70486 12.8271L6.75012 10.2597C6.50939 9.93632 6.29755 9.84813 6.0183 9.84813C5.58498 9.84813 5.24796 10.2107 5.24796 10.6516C5.24796 10.877 5.33462 11.0926 5.47906 11.2886L7.896 14.3067C8.14637 14.6497 8.41599 14.7869 8.74338 14.7869C9.07078 14.7869 9.35002 14.6301 9.55224 14.3067L14.078 7.05538C14.1935 6.8496 14.3187 6.62422 14.3187 6.40864C14.3187 5.94807 13.9239 5.65411 13.5002 5.65411C13.2499 5.65411 12.9995 5.81089 12.8165 6.10486Z" fill="var(--fill-0, white)"/>
</g>
</svg>
