<svg preserveAspectRatio="xMidYMid meet" width="100%" height="100%" overflow="visible" style="display: block;" viewBox="0 0 14.7974 14.4191" fill="none" xmlns="http://www.w3.org/2000/svg">
<g id="Group">
<path id="Vector" opacity="0" d="M14.7974 0H7.07258e-08V14.419H14.7974V0Z" fill="var(--fill-0, black)"/>
<path id="Vector_2" d="M0.27467 14.148C0.635999 14.4996 1.13405 14.5191 1.50514 14.148L11.4172 4.24565L13.4094 2.09722C13.7415 1.76519 13.7415 1.32573 13.4192 1.01323C13.0969 0.690967 12.6477 0.681202 12.3255 1.01323L10.177 3.00542L0.27467 12.9175C-0.0964232 13.2886 -0.0866576 13.7867 0.27467 14.148ZM12.6575 7.2144V10.8179C12.6575 11.2867 13.0676 11.7066 13.5462 11.7066C14.0149 11.7066 14.4348 11.316 14.4348 10.7789L14.4251 0.964405C14.4251 0.397999 14.054 0.0171393 13.4778 0.0171393H3.65358C3.1067 0.0171393 2.73561 0.427296 2.73561 0.896046C2.73561 1.3648 3.15553 1.76519 3.61451 1.76519H7.01295L12.8919 1.56987L12.6575 7.2144Z" fill="var(--fill-0, white)"/>
</g>
</svg>
