<svg preserveAspectRatio="xMidYMid meet" width="100%" height="100%" overflow="visible" style="display: block;" viewBox="0 0 14 14" fill="none" xmlns="http://www.w3.org/2000/svg">
<g id="Group">
<path id="Vector" opacity="0" d="M14 0H0V14H14V0Z" fill="var(--fill-0, black)"/>
<path id="Vector_2" d="M3.77064 10.1007C5.93581 12.3128 8.52813 13.9926 10.6123 13.9926C11.5918 13.9926 12.446 13.5951 13.0058 12.9577C13.5434 12.3428 13.7275 11.8854 13.7275 11.4805C13.7275 11.1655 13.536 10.8731 13.05 10.5281L11.253 9.2159C10.8038 8.8934 10.6049 8.83343 10.3398 8.83343C10.1115 8.83343 9.92002 8.87842 9.53707 9.08836L8.35875 9.74826C8.21878 9.83073 8.15989 9.84578 8.0568 9.84578C7.91683 9.84578 7.82113 9.80823 7.68117 9.74826C7.1215 9.4858 6.33349 8.85593 5.63386 8.14358C4.93423 7.43118 4.38926 6.70381 4.10941 6.14141C4.07258 6.06642 4.0284 5.94644 4.0284 5.82647C4.0284 5.72899 4.07995 5.6465 4.13886 5.54152L4.83113 4.33423C5.02261 4.00429 5.07416 3.82432 5.07416 3.56937C5.07416 3.27692 4.97842 2.96197 4.70593 2.56454L3.46869 0.809858C3.1152 0.307446 2.85007 0 2.45238 0C1.95897 0 1.36244 0.382432 0.935292 0.802356C0.32404 1.40225 0 2.2421 0 3.18693C0 5.32405 1.61283 7.91107 3.77064 10.1007Z" fill="var(--fill-0, white)"/>
</g>
</svg>
