<svg preserveAspectRatio="xMidYMid meet" width="100%" height="100%" overflow="visible" style="display: block;" viewBox="0 0 16 16" fill="none" xmlns="http://www.w3.org/2000/svg">
<g id="Group">
<path id="Vector" opacity="0" d="M16 0H0V16H16V0Z" fill="var(--fill-0, black)"/>
<path id="Vector_2" d="M15.715 7.9961C15.715 12.4018 12.1945 15.9922 7.85749 15.9922C3.52817 15.9922 0 12.4018 0 7.9961C0 3.58256 3.52817 0 7.85749 0C12.1945 0 15.715 3.58256 15.715 7.9961ZM6.60183 6.54583C6.27828 6.54583 6.02408 6.80452 6.02408 7.1181C6.02408 7.45518 6.27828 7.6982 6.60183 7.6982H7.44921V11.3827H6.47087C6.13962 11.3827 5.88541 11.6414 5.88541 11.955C5.88541 12.292 6.13962 12.535 6.47087 12.535H9.69859C10.0298 12.535 10.2841 12.292 10.2841 11.955C10.2841 11.6414 10.0298 11.3827 9.69859 11.3827H8.72028V7.28272C8.72028 6.84372 8.50454 6.54583 8.09632 6.54583H6.60183ZM6.7482 4.147C6.7482 4.74278 7.2104 5.21314 7.78816 5.21314C8.36594 5.21314 8.82038 4.74278 8.82038 4.147C8.82038 3.55121 8.36594 3.08085 7.78816 3.08085C7.2104 3.08085 6.7482 3.55121 6.7482 4.147Z" fill="var(--fill-0, #992224)"/>
</g>
</svg>
