<svg preserveAspectRatio="xMidYMid meet" width="100%" height="100%" overflow="visible" style="display: block;" viewBox="0 0 15.715 15.9922" fill="none" xmlns="http://www.w3.org/2000/svg">
<path id="Vector" d="M15.715 7.9961C15.715 12.4018 12.1945 15.9922 7.85749 15.9922C3.52817 15.9922 0 12.4018 0 7.9961C0 3.58256 3.52817 0 7.85749 0C12.1945 0 15.715 3.58256 15.715 7.9961ZM5.72364 3.269C5.21522 3.269 4.89938 3.56689 4.89938 4.11564V4.20187C4.89938 5.44832 6.18585 6.76532 6.89456 7.4787C7.2181 7.79227 7.24122 8.15284 6.89456 8.49778C6.18585 9.21905 4.89938 10.536 4.89938 11.7668V11.8765C4.89938 12.4175 5.21522 12.7153 5.72364 12.7153H9.99132C10.4997 12.7153 10.8156 12.4175 10.8156 11.8765V11.7668C10.8156 10.536 9.52915 9.21905 8.82038 8.49778C8.47377 8.15284 8.49688 7.79227 8.82038 7.4787C9.52915 6.76532 10.8156 5.44832 10.8156 4.20187V4.11564C10.8156 3.56689 10.4997 3.269 9.99132 3.269H5.72364ZM9.37509 6.07547C9.05924 6.41255 8.68944 6.77316 8.34283 7.12593C8.18104 7.28272 8.13481 7.39247 8.13481 7.61981V9.89319C8.13481 9.97941 8.15792 10.0029 8.21188 10.0578L9.7217 11.6257C9.86811 11.7589 9.82953 12.0177 9.60614 12.0177H6.10881C5.88542 12.0177 5.8469 11.7589 5.99326 11.6257L7.50313 10.0578C7.55706 10.0029 7.58017 9.97941 7.58017 9.89319V7.61981C7.58017 7.39247 7.53394 7.28272 7.37217 7.12593C7.02552 6.77316 6.65575 6.41255 6.34762 6.07547C6.20895 5.93436 6.28599 5.77757 6.44776 5.77757H9.27491C9.4367 5.77757 9.50604 5.93436 9.37509 6.07547Z" fill="url(#paint0_linear_0_4)"/>
<defs>
<linearGradient id="paint0_linear_0_4" x1="0" y1="0" x2="15.9898" y2="15.7126" gradientUnits="userSpaceOnUse">
<stop stop-color="#E8802A"/>
<stop offset="1" stop-color="#D06A1A"/>
</linearGradient>
</defs>
</svg>
