<svg preserveAspectRatio="xMidYMid meet" width="100%" height="100%" overflow="visible" style="display: block;" viewBox="0 0 26 20" fill="none" xmlns="http://www.w3.org/2000/svg">
<g id="Group">
<path id="Vector" opacity="0" d="M26 0H0V20H26V0Z" fill="var(--fill-0, black)"/>
<path id="Vector_2" d="M9.89078 15.5461C9.89078 16.6773 8.99544 17.5951 7.87625 17.5951C6.76406 17.5951 5.86172 16.6702 5.86172 15.5461C5.86172 14.4148 6.76406 13.497 7.87625 13.497C8.98842 13.497 9.89078 14.4148 9.89078 15.5461ZM19.9564 15.5389C19.9564 16.6773 19.0611 17.5951 17.9419 17.5951C16.8297 17.5951 15.9274 16.6702 15.9274 15.5389C15.9274 14.4077 16.8297 13.4898 17.9419 13.4898C19.0541 13.4898 19.9564 14.4077 19.9564 15.5389ZM15.8014 4.57488V13.6677C15.3538 14.1515 15.116 14.8132 15.116 15.5389C15.116 15.6385 15.123 15.7382 15.1369 15.8378H10.6812C10.6952 15.7452 10.7022 15.6457 10.7022 15.5461C10.7022 13.9595 9.43609 12.6645 7.87625 12.6645C6.31639 12.6645 5.04332 13.9595 5.04332 15.5461C5.04332 15.6457 5.05031 15.7452 5.0643 15.8378H4.58865C3.33656 15.8378 2.68604 15.1761 2.68604 13.9096V8.77186C3.24413 9.0294 3.86278 9.17111 4.51171 9.17111C6.97391 9.17111 9.02344 7.08644 9.02344 4.58199C9.02344 3.88788 8.8688 3.22835 8.58852 2.63963H13.8989C15.1509 2.63963 15.8014 3.30843 15.8014 4.57488ZM20.1802 7.20028L22.5585 9.93239C22.9432 10.3735 23.0552 10.7008 23.0552 11.398V13.9096C23.0552 15.169 22.4117 15.8378 21.1805 15.8378H20.7538C20.7678 15.7382 20.7748 15.6385 20.7748 15.5389C20.7748 13.9523 19.4738 12.6574 17.9139 12.6574C17.4942 12.6574 17.0955 12.7712 16.7597 12.9634V6.56705H18.6204C19.3059 6.56705 19.7676 6.73069 20.1802 7.20028ZM17.9349 7.8833V10.4589C17.9349 10.8644 18.1798 11.1063 18.5714 11.1063H21.7051C21.6772 10.9427 21.6002 10.8075 21.4883 10.6795L19.3549 8.2462C19.0821 7.9402 18.8723 7.8833 18.5504 7.8833H17.9349Z" fill="var(--fill-0, white)"/>
<path id="Vector_3" d="M8.06514 4.58199C8.06514 6.55994 6.43531 8.19636 4.51171 8.19636C2.56712 8.19636 0.9583 6.57417 0.9583 4.58199C0.9583 2.60405 2.56712 0.967623 4.51171 0.967623C6.46328 0.967623 8.06514 2.59694 8.06514 4.58199ZM4.113 2.4831V4.26182H2.85392C2.61609 4.26182 2.42024 4.46104 2.42024 4.69583C2.42024 4.93774 2.6091 5.13696 2.85392 5.13696H4.54668C4.7915 5.13696 4.98036 4.94485 4.98036 4.69583V2.4831C4.98036 2.24119 4.78451 2.05621 4.54668 2.05621C4.30885 2.05621 4.113 2.24119 4.113 2.4831Z" fill="var(--fill-0, white)"/>
</g>
</svg>
