<svg preserveAspectRatio="xMidYMid meet" width="100%" height="100%" overflow="visible" style="display: block;" viewBox="0 0 16 14" fill="none" xmlns="http://www.w3.org/2000/svg">
<g id="Group">
<path id="Vector" opacity="0" d="M16 0H0V14H16V0Z" fill="var(--fill-0, white)"/>
<path id="Vector_2" d="M2.47488 14H13.2414C14.8887 14 15.7084 13.21 15.7084 11.6452V2.37006C15.7084 0.805214 14.8887 0.0151926 13.2414 0.0151926H2.47488C0.827587 0.0151926 0 0.797614 0 2.37006V11.6452C0 13.2176 0.827587 14 2.47488 14ZM2.35665 12.777C1.65517 12.777 1.26897 12.42 1.26897 11.7135V4.5502C1.26897 3.85134 1.65517 3.48671 2.35665 3.48671H13.3439C14.0453 3.48671 14.4394 3.85134 14.4394 4.5502V11.7135C14.4394 12.42 14.0453 12.777 13.3439 12.777H2.35665ZM6.32119 6.2138H6.78621C7.06208 6.2138 7.14877 6.13783 7.14877 5.87196V5.42378C7.14877 5.15791 7.06208 5.07435 6.78621 5.07435H6.32119C6.04532 5.07435 5.95075 5.15791 5.95075 5.42378V5.87196C5.95075 6.13783 6.04532 6.2138 6.32119 6.2138ZM8.93792 6.2138H9.40297C9.67884 6.2138 9.77343 6.13783 9.77343 5.87196V5.42378C9.77343 5.15791 9.67884 5.07435 9.40297 5.07435H8.93792C8.66206 5.07435 8.56747 5.15791 8.56747 5.42378V5.87196C8.56747 6.13783 8.66206 6.2138 8.93792 6.2138ZM11.5547 6.2138H12.0197C12.2956 6.2138 12.3902 6.13783 12.3902 5.87196V5.42378C12.3902 5.15791 12.2956 5.07435 12.0197 5.07435H11.5547C11.2788 5.07435 11.1921 5.15791 11.1921 5.42378V5.87196C11.1921 6.13783 11.2788 6.2138 11.5547 6.2138ZM3.70443 8.69777H4.16158C4.44532 8.69777 4.53202 8.62185 4.53202 8.35597V7.90777C4.53202 7.64191 4.44532 7.56594 4.16158 7.56594H3.70443C3.42069 7.56594 3.33399 7.64191 3.33399 7.90777V8.35597C3.33399 8.62185 3.42069 8.69777 3.70443 8.69777ZM6.32119 8.69777H6.78621C7.06208 8.69777 7.14877 8.62185 7.14877 8.35597V7.90777C7.14877 7.64191 7.06208 7.56594 6.78621 7.56594H6.32119C6.04532 7.56594 5.95075 7.64191 5.95075 7.90777V8.35597C5.95075 8.62185 6.04532 8.69777 6.32119 8.69777ZM8.93792 8.69777H9.40297C9.67884 8.69777 9.77343 8.62185 9.77343 8.35597V7.90777C9.77343 7.64191 9.67884 7.56594 9.40297 7.56594H8.93792C8.66206 7.56594 8.56747 7.64191 8.56747 7.90777V8.35597C8.56747 8.62185 8.66206 8.69777 8.93792 8.69777ZM11.5547 8.69777H12.0197C12.2956 8.69777 12.3902 8.62185 12.3902 8.35597V7.90777C12.3902 7.64191 12.2956 7.56594 12.0197 7.56594H11.5547C11.2788 7.56594 11.1921 7.64191 11.1921 7.90777V8.35597C11.1921 8.62185 11.2788 8.69777 11.5547 8.69777ZM3.70443 11.1894H4.16158C4.44532 11.1894 4.53202 11.1058 4.53202 10.8399V10.3918C4.53202 10.1259 4.44532 10.0499 4.16158 10.0499H3.70443C3.42069 10.0499 3.33399 10.1259 3.33399 10.3918V10.8399C3.33399 11.1058 3.42069 11.1894 3.70443 11.1894ZM6.32119 11.1894H6.78621C7.06208 11.1894 7.14877 11.1058 7.14877 10.8399V10.3918C7.14877 10.1259 7.06208 10.0499 6.78621 10.0499H6.32119C6.04532 10.0499 5.95075 10.1259 5.95075 10.3918V10.8399C5.95075 11.1058 6.04532 11.1894 6.32119 11.1894ZM8.93792 11.1894H9.40297C9.67884 11.1894 9.77343 11.1058 9.77343 10.8399V10.3918C9.77343 10.1259 9.67884 10.0499 9.40297 10.0499H8.93792C8.66206 10.0499 8.56747 10.1259 8.56747 10.3918V10.8399C8.56747 11.1058 8.66206 11.1894 8.93792 11.1894Z" fill="var(--fill-0, white)"/>
</g>
</svg>
