<svg preserveAspectRatio="xMidYMid meet" width="100%" height="100%" overflow="visible" style="display: block;" viewBox="0 0 15.715 15.9922" fill="none" xmlns="http://www.w3.org/2000/svg">
<path id="Vector" d="M15.715 7.9961C15.715 12.4018 12.1945 15.9922 7.85749 15.9922C3.52817 15.9922 0 12.4018 0 7.9961C0 3.58256 3.52817 0 7.85749 0C12.1945 0 15.715 3.58256 15.715 7.9961ZM10.1377 4.79766L7.86583 7.09323L5.60039 4.79766C5.47713 4.67223 5.32307 4.60952 5.15359 4.60952C4.79923 4.60952 4.51421 4.89173 4.51421 5.2445C4.51421 5.4248 4.58354 5.58158 4.69909 5.70702L6.96035 8.00816L4.69909 10.293C4.58354 10.4263 4.51421 10.5752 4.51421 10.7555C4.51421 11.1162 4.79923 11.4141 5.15359 11.4141C5.33847 11.4141 5.49254 11.3356 5.61579 11.218L7.86359 8.92733L10.1146 11.218C10.2378 11.3356 10.3919 11.4141 10.5768 11.4141C10.9235 11.4141 11.2085 11.1162 11.2085 10.7555C11.2085 10.5752 11.1469 10.4263 11.0236 10.293L8.76714 8.00654L11.0236 5.70702C11.1469 5.58158 11.2085 5.4248 11.2085 5.2445C11.2085 4.89173 10.9235 4.60952 10.5768 4.60952C10.3996 4.60952 10.2532 4.67223 10.1377 4.79766Z" fill="url(#paint0_linear_0_4)"/>
<defs>
<linearGradient id="paint0_linear_0_4" x1="7.8575" y1="0" x2="7.8575" y2="15.9922" gradientUnits="userSpaceOnUse">
<stop stop-color="#FF383C"/>
<stop offset="1" stop-color="#992224"/>
</linearGradient>
</defs>
</svg>
