<svg preserveAspectRatio="xMidYMid meet" width="100%" height="100%" overflow="visible" style="display: block;" viewBox="0 0 26 20" fill="none" xmlns="http://www.w3.org/2000/svg">
<g id="Group">
<path id="Vector" opacity="0" d="M26 0H0V20H26V0Z" fill="var(--fill-0, black)"/>
<path id="Vector_2" d="M21.3822 9.99575C21.3822 14.818 17.5591 18.7323 12.8494 18.7323C11.659 18.7323 10.5254 18.4823 9.49657 18.0293C10.3019 17.0653 10.7915 15.8207 10.7915 14.4754C10.7915 14.0245 10.7376 13.5854 10.6303 13.1671C11.2982 13.0028 12.0442 12.9079 12.8494 12.9079C15.3619 12.9079 17.295 13.8265 18.1426 14.8489C19.2754 13.5665 19.9601 11.8641 19.9601 9.99575C19.9601 5.97003 16.7812 2.7152 12.8494 2.7152C9.25774 2.7152 6.29427 5.43134 5.8167 8.9728C5.67857 8.95648 5.53777 8.95078 5.39575 8.95078C5.04453 8.95078 4.70054 8.98604 4.36774 9.05559C4.82441 4.67446 8.45006 1.25911 12.8494 1.25911C17.5591 1.25911 21.3822 5.17346 21.3822 9.99575ZM15.7188 8.22271C15.7188 10.0642 14.464 11.469 12.8494 11.4518C11.2432 11.4347 9.98844 10.0642 9.98005 8.22271C9.97165 6.49251 11.2432 5.0621 12.8494 5.0621C14.4556 5.0621 15.7188 6.49251 15.7188 8.22271Z" fill="var(--fill-0, white)"/>
<path id="Vector_3" d="M9.64545 14.4754C9.64545 16.8566 7.69626 18.8265 5.39575 18.8265C3.07013 18.8265 1.14607 16.8737 1.14607 14.4754C1.14607 12.0943 3.07013 10.1242 5.39575 10.1242C7.72972 10.1242 9.64545 12.0857 9.64545 14.4754ZM6.72586 12.5482L4.69305 15.4433L3.66408 14.3041C3.57207 14.2099 3.43822 14.1242 3.26254 14.1242C2.96975 14.1242 2.73552 14.3555 2.73552 14.6639C2.73552 14.7838 2.77735 14.9379 2.87774 15.0493L4.2915 16.6424C4.40025 16.7623 4.57593 16.8223 4.70978 16.8223C4.89382 16.8223 5.06112 16.7452 5.15314 16.6167L7.57914 13.1649C7.65443 13.0535 7.69626 12.9336 7.69626 12.8394C7.69626 12.5397 7.45366 12.3084 7.16923 12.3084C6.97682 12.3084 6.82625 12.4026 6.72586 12.5482Z" fill="var(--fill-0, white)"/>
</g>
</svg>
