<svg preserveAspectRatio="xMidYMid meet" width="100%" height="100%" overflow="visible" style="display: block;" viewBox="0 0 20 19" fill="none" xmlns="http://www.w3.org/2000/svg">
<g id="Group">
<path id="Vector" opacity="0" d="M20 0H0V19H20V0Z" fill="white"/>
<path id="Vector_2" d="M8.22454 18.898C9.37219 18.898 10.1538 18.0309 10.1538 16.7132C10.1538 15.421 9.39714 14.5369 8.1996 14.5369C7.3181 14.5454 6.0707 14.9279 5.38046 15.9566C3.92516 15.8715 1.28898 15.2085 1.2973 13.5848C1.30561 12.5222 2.04574 11.8251 3.95843 11.1875C4.92308 12.1396 6.82745 12.7942 8.22454 12.7942C8.64862 12.7942 8.94803 12.4967 8.94803 11.961V5.55122C8.94803 4.71811 8.73181 4.47158 8.01664 4.35257C5.56341 3.96152 4.73181 3.31543 4.7235 2.83087C4.71518 2.10828 6.76924 1.17316 9.86277 1.17316C12.9563 1.17316 15.0021 2.10828 15.0021 2.83087C14.9855 3.31543 14.1539 3.96152 11.7006 4.35257C10.9855 4.47158 10.7775 4.71811 10.7775 5.55122V11.961C10.7775 12.4967 11.0686 12.7942 11.4927 12.7942C12.8732 12.7942 14.7693 12.1396 15.8337 11.1365C16.0998 10.8729 16.1746 10.7029 16.1746 10.0653V2.98389C16.1746 1.15615 13.8379 0 9.86277 0C5.88774 0 3.54263 1.15615 3.54263 2.98389V9.92081C1.2474 10.6689 0 11.7145 0 13.5422C0 15.9056 2.53639 16.9342 5.28899 17.2827C5.70479 18.0988 6.81913 18.898 8.22454 18.898Z" fill="var(--fill-0, white)"/>
</g>
</svg>
