<svg preserveAspectRatio="xMidYMid meet" width="100%" height="100%" overflow="visible" style="display: block;" viewBox="0 0 15 14" fill="none" xmlns="http://www.w3.org/2000/svg">
<g id="Group">
<path id="Vector" opacity="0" d="M15 0H0V14H15V0Z" fill="var(--fill-0, black)"/>
<path id="Vector_2" d="M0 4.90775C0 8.05166 2.64705 11.1439 6.82895 13.8007C6.98466 13.8967 7.20711 14 7.36282 14C7.51852 14 7.74095 13.8967 7.90412 13.8007C12.0786 11.1439 14.7256 8.05166 14.7256 4.90775C14.7256 2.2952 12.9239 0.450184 10.5215 0.450184C9.14977 0.450184 8.03752 1.09963 7.36282 2.09594C6.7029 1.10701 5.57587 0.450184 4.20414 0.450184C1.80178 0.450184 0 2.2952 0 4.90775ZM1.19377 4.90775C1.19377 2.94464 2.4691 1.63838 4.18932 1.63838C5.58328 1.63838 6.38407 2.50185 6.85861 3.23985C7.05881 3.53505 7.18486 3.61624 7.36282 3.61624C7.54077 3.61624 7.65197 3.52767 7.86699 3.23985C8.37866 2.51661 9.14977 1.63838 10.5363 1.63838C12.2565 1.63838 13.5319 2.94464 13.5319 4.90775C13.5319 7.65317 10.6179 10.6126 7.51852 12.6642C7.44438 12.7159 7.39247 12.7528 7.36282 12.7528C7.33315 12.7528 7.28125 12.7159 7.21452 12.6642C4.10776 10.6126 1.19377 7.65317 1.19377 4.90775Z" fill="var(--fill-0, #E8802A)"/>
<path id="Vector_3" d="M5.02717 7.93354C5.02717 8.0664 5.1384 8.16237 5.27927 8.16237H7.11071L6.13197 10.7749C5.9985 11.1218 6.36924 11.3136 6.5991 11.0332L9.55758 7.32841C9.61687 7.26199 9.65393 7.18819 9.65393 7.12177C9.65393 6.98155 9.54277 6.88561 9.40185 6.88561H7.57042L8.54919 4.27306C8.6826 3.9262 8.31192 3.74169 8.08202 4.01476L5.11615 7.71952C5.05684 7.78595 5.02717 7.85978 5.02717 7.93354Z" fill="var(--fill-0, #E8802A)"/>
</g>
</svg>
