<svg preserveAspectRatio="none" width="100%" height="100%" overflow="visible" style="display: block;" viewBox="0 0 7 9.58155" fill="none" xmlns="http://www.w3.org/2000/svg">
<g id="Group">
<path id="Vector" opacity="0" d="M7 0H0V9.58155H7V0Z" fill="var(--fill-0, black)"/>
<path id="Vector_2" d="M0 4.78801C0 4.92592 0.0496453 5.04727 0.154452 5.15208L4.52876 9.42712C4.62253 9.52636 4.74389 9.57601 4.8873 9.57601C5.17415 9.57601 5.39479 9.36092 5.39479 9.07409C5.39479 8.93061 5.33411 8.80928 5.24586 8.71552L1.2301 4.78801L5.24586 0.86052C5.33411 0.766743 5.39479 0.639871 5.39479 0.501969C5.39479 0.215129 5.17415 0 4.8873 0C4.74389 0 4.62253 0.0496453 4.52876 0.14342L0.154452 4.42395C0.0496453 4.52324 0 4.65011 0 4.78801Z" fill="var(--fill-0, #8E8E93)"/>
</g>
</svg>
