<svg preserveAspectRatio="xMidYMid meet" width="100%" height="100%" overflow="visible" style="display: block;" viewBox="0 0 9 14" fill="none" xmlns="http://www.w3.org/2000/svg">
<g id="Group">
<path id="Vector" opacity="0" d="M9 0H0V14H9V0Z" fill="var(--fill-0, black)"/>
<path id="Vector_2" d="M1.62304 13.3604H7.18323C8.26701 13.3604 8.8063 12.7869 8.8063 11.629V3.2698C8.8063 2.13943 8.28797 1.5384 7.24086 1.5384H7.1152C7.1204 1.58251 7.1204 1.63214 7.1204 1.67625V2.17251C7.1204 2.26074 7.1152 2.34896 7.09949 2.42616H7.22515C7.71726 2.42616 7.96335 2.76251 7.96335 3.28082V11.618C7.96335 12.1693 7.68585 12.4726 7.14136 12.4726H1.66492C1.12042 12.4726 0.842935 12.1693 0.842935 11.618V3.28082C0.842935 2.76251 1.08901 2.42616 1.58115 2.42616H1.70681C1.6911 2.34896 1.68586 2.26074 1.68586 2.17251V1.67625C1.68586 1.63214 1.68586 1.58251 1.6911 1.5384H1.56544C0.518325 1.5384 0 2.13943 0 3.2698V11.629C0 12.7869 0.539268 13.3604 1.62304 13.3604ZM2.78534 2.80111H6.02096C6.32462 2.80111 6.50787 2.59709 6.50787 2.25522V1.67625C6.50787 1.33438 6.32462 1.13037 6.02096 1.13037H5.53925C5.50264 0.507287 5.01047 0 4.40314 0C3.79581 0 3.30367 0.507287 3.26702 1.13037H2.78534C2.48168 1.13037 2.29843 1.33438 2.29843 1.67625V2.25522C2.29843 2.59709 2.48168 2.80111 2.78534 2.80111ZM4.40314 1.6542C4.15183 1.6542 3.94765 1.43364 3.94765 1.17448C3.94765 0.904292 4.15183 0.689247 4.40314 0.689247C4.65445 0.689247 4.85864 0.904292 4.85864 1.17448C4.85864 1.43364 4.65445 1.6542 4.40314 1.6542Z" fill="var(--fill-0, #3B82F6)"/>
<path id="Vector_3" d="M2.09424 8.68455H6.71203C6.89528 8.68455 7.04191 8.53013 7.04191 8.33713C7.04191 8.14968 6.89528 8.00078 6.71203 8.00078H2.09424C1.91099 8.00078 1.7644 8.14968 1.7644 8.33713C1.7644 8.53013 1.91099 8.68455 2.09424 8.68455ZM2.09424 10.7468H4.73298C4.911 10.7468 5.05759 10.5924 5.05759 10.4049C5.05759 10.2174 4.91623 10.063 4.73298 10.063H2.09424C1.91099 10.063 1.7644 10.2174 1.7644 10.4049C1.7644 10.5924 1.91623 10.7468 2.09424 10.7468ZM2.21989 5.77867C2.50262 5.77867 2.72775 5.54155 2.72775 5.2438C2.72775 4.94605 2.50262 4.70894 2.21989 4.70894C1.93717 4.70894 1.71204 4.94605 1.71204 5.2438C1.71204 5.54155 1.93717 5.77867 2.21989 5.77867ZM1.98953 5.40371L4.29319 6.6333L4.5445 6.1812L2.2356 4.95708L1.98953 5.40371ZM4.37173 6.87592C4.65969 6.87592 4.88482 6.63883 4.88482 6.3411C4.88482 6.04332 4.65969 5.80623 4.37173 5.80623C4.09424 5.80623 3.86911 6.04332 3.86911 6.3411C3.86911 6.63883 4.09424 6.87592 4.37173 6.87592ZM4.26702 6.14811L4.54974 6.56718L6.75395 4.85231L6.46595 4.43324L4.26702 6.14811ZM6.58116 5.22726C6.86911 5.22726 7.09423 4.99016 7.09423 4.6924C7.09423 4.39465 6.86911 4.15755 6.58116 4.15755C6.30366 4.15755 6.07854 4.39465 6.07854 4.6924C6.07854 4.99016 6.30366 5.22726 6.58116 5.22726Z" fill="var(--fill-0, #3B82F6)"/>
</g>
</svg>
