<svg preserveAspectRatio="xMidYMid meet" width="100%" height="100%" overflow="visible" style="display: block;" viewBox="0 0 20 20" fill="none" xmlns="http://www.w3.org/2000/svg">
<g id="Icon" clip-path="url(#clip0_0_43)">
<path id="Vector" d="M19.6437 10.0048C19.6437 15.4262 15.2432 19.8267 9.82186 19.8267C4.41021 19.8267 -2.5444e-07 15.4262 -2.5444e-07 10.0048C-2.5444e-07 4.59318 4.41021 0.182974 9.82186 0.182974C15.2432 0.182974 19.6437 4.59318 19.6437 10.0048ZM3.29321 13.2788C3.29321 13.7217 3.53394 13.9625 4.14059 13.9625H7.77813C7.66193 13.7457 7.62639 13.5131 7.62639 13.3173C7.62639 12.5106 8.07946 11.6159 8.88489 10.9145C8.29207 10.5528 7.5738 10.3419 6.83678 10.3419C5.01685 10.3419 3.29321 11.6419 3.29321 13.2788ZM8.32933 13.3173C8.32933 13.741 8.60857 13.9625 9.36928 13.9625H15.4357C16.206 13.9625 16.466 13.741 16.466 13.3173C16.466 12.0655 14.9158 10.3611 12.4121 10.3611C9.89893 10.3611 8.32933 12.0655 8.32933 13.3173ZM5.15166 7.74195C5.15166 8.79154 5.94126 9.60041 6.83678 9.60041C7.74193 9.60041 8.52191 8.79154 8.52191 7.73233C8.52191 6.70199 7.74193 5.93165 6.83678 5.93165C5.9509 5.93165 5.15166 6.72125 5.15166 7.74195ZM10.4767 7.35679C10.4767 8.55081 11.3625 9.49448 12.4121 9.49448C13.4521 9.49448 14.338 8.55081 14.338 7.34715C14.338 6.16276 13.4425 5.27686 12.4121 5.27686C11.3625 5.27686 10.4767 6.19165 10.4767 7.35679Z" fill="var(--fill-0, white)"/>
</g>
<defs>
<clipPath id="clip0_0_43">
<rect width="20" height="20" fill="white"/>
</clipPath>
</defs>
</svg>
