<svg preserveAspectRatio="xMidYMid meet" width="100%" height="100%" overflow="visible" style="display: block;" viewBox="0 0 20 19" fill="none" xmlns="http://www.w3.org/2000/svg">
<g id="Group">
<path id="Vector" opacity="0" d="M20 0H0V19H20V0Z" fill="var(--fill-0, white)"/>
<path id="Vector_2" d="M16.62 12.5209C16.9087 14.8109 16.9553 14.8482 19.2924 15.1832C19.5065 15.2205 19.6554 15.3694 19.6554 15.5743C19.6554 15.7698 19.5065 15.928 19.3016 15.9652C16.9273 16.4214 16.918 16.4027 16.62 18.637C16.5921 18.8418 16.4246 18.9908 16.229 18.9908C16.0149 18.9908 15.8566 18.8325 15.8379 18.6183C15.5587 16.3842 15.512 16.3469 13.1843 15.9652C12.9516 15.928 12.8026 15.779 12.8026 15.5743C12.8026 15.3881 12.9422 15.2299 13.1471 15.1832C15.512 14.7364 15.5587 14.7644 15.8379 12.5301C15.8566 12.316 16.0149 12.1578 16.229 12.1578C16.4338 12.1578 16.6015 12.3068 16.62 12.5209Z" fill="var(--fill-0, white)"/>
<path id="Vector_3" d="M6.43388 0.269966C6.75046 1.96424 6.7039 1.90838 8.39849 2.24352C8.5661 2.27144 8.67782 2.39246 8.67782 2.55071C8.67782 2.70897 8.5661 2.8393 8.39849 2.86723C6.7039 3.20236 6.75046 3.1465 6.43388 4.84077C6.40595 5.00834 6.27559 5.11074 6.11731 5.11074C5.95902 5.11074 5.82867 5.00834 5.80073 4.84077C5.48416 3.1465 5.53071 3.20236 3.83612 2.86723C3.66853 2.8393 3.55679 2.70897 3.55679 2.55071C3.55679 2.39246 3.66853 2.27144 3.83612 2.24352C5.53071 1.90838 5.48416 1.96424 5.80073 0.269966C5.82867 0.102401 5.95902 0 6.11731 0C6.27559 0 6.40595 0.102401 6.43388 0.269966Z" fill="var(--fill-0, white)"/>
<path id="Vector_4" d="M8.73369 16.0397C8.73369 17.5013 7.54189 18.6929 6.09868 18.6929C4.63686 18.6929 3.44506 17.5013 3.44506 16.0397C3.44506 14.5968 4.63686 13.4052 6.09868 13.4052C7.54189 13.4052 8.73369 14.5968 8.73369 16.0397Z" fill="var(--fill-0, white)"/>
<path id="Vector_5" d="M4.92551 7.80109C4.92551 9.16024 3.80819 10.268 2.46741 10.268C1.10801 10.268 0 9.16024 0 7.80109C0 6.46057 1.10801 5.35277 2.46741 5.35277C3.80819 5.35277 4.92551 6.46057 4.92551 7.80109Z" fill="var(--fill-0, white)"/>
<path id="Vector_6" d="M19.283 5.43656C19.283 7.63028 17.6862 9.44746 15.5882 9.78569C15.6319 9.55005 15.6517 9.30631 15.6517 9.05783C15.6517 6.56298 13.6313 4.54288 11.1359 4.54288C10.9368 4.54288 10.7406 4.55575 10.5497 4.58512C10.9456 2.56183 12.7309 1.03331 14.8696 1.03331C17.3091 1.03331 19.283 3.00687 19.283 5.43656Z" fill="var(--fill-0, white)"/>
<path id="Vector_7" d="M11.1359 12.493C13.0354 12.493 14.5717 10.9662 14.5717 9.05783C14.5717 7.15876 13.0354 5.62275 11.1359 5.62275C9.23648 5.62275 7.70017 7.15876 7.70017 9.05783C7.70017 10.9662 9.23648 12.493 11.1359 12.493Z" fill="var(--fill-0, white)"/>
</g>
</svg>
