<svg preserveAspectRatio="xMidYMid meet" width="100%" height="100%" overflow="visible" style="display: block;" viewBox="0 0 20 20" fill="none" xmlns="http://www.w3.org/2000/svg">
<g id="Group">
<path id="Vector" opacity="0" d="M20 0H0V20H20V0Z" fill="var(--fill-0, black)"/>
<path id="Vector_2" d="M5.74746 2.39465V3.10359C5.74746 3.22962 5.75536 3.35566 5.77907 3.46594H5.59727C4.85426 3.46594 4.47485 3.94644 4.47485 4.68689V16.5971C4.47485 17.3848 4.90169 17.818 5.72374 17.818H13.9838C14.8058 17.818 15.2248 17.3848 15.2248 16.5971V11.1225L16.4974 9.85428V16.6129C16.4974 18.2671 15.6832 19.0863 14.047 19.0863H5.6526C4.02431 19.0863 3.20225 18.2671 3.20225 16.6129V4.67114C3.20225 3.05632 3.99269 2.19772 5.56566 2.19772H5.75536C5.74746 2.26073 5.74746 2.33162 5.74746 2.39465ZM16.4962 4.6326L15.2248 5.89836V4.68689C15.2248 3.94644 14.8532 3.46594 14.1103 3.46594H13.9206C13.9443 3.35566 13.9522 3.22962 13.9522 3.10359V2.39465C13.9522 2.33162 13.9522 2.26073 13.9443 2.19772H14.134C15.7019 2.19772 16.4845 3.04231 16.4962 4.6326ZM11.565 1.61481H12.2923C12.7586 1.61481 13.0352 1.90626 13.0352 2.39465V3.22174C13.0352 3.71013 12.7586 4.00158 12.2923 4.00158H7.41527C6.94891 4.00158 6.67226 3.71013 6.67226 3.22174V2.39465C6.67226 1.90626 6.94891 1.61481 7.41527 1.61481H8.1346C8.18989 0.724696 8.93292 0 9.84982 0C10.7667 0 11.5097 0.724696 11.565 1.61481ZM9.16214 1.67783C9.16214 2.04805 9.47037 2.36314 9.84982 2.36314C10.2371 2.36314 10.5375 2.04805 10.5375 1.67783C10.5375 1.29185 10.2371 0.984638 9.84982 0.984638C9.47037 0.984638 9.16214 1.29185 9.16214 1.67783Z" fill="var(--fill-0, white)"/>
<path id="Vector_3" d="M7.96067 13.651C7.96067 13.9189 7.73145 14.1394 7.4627 14.1394H6.36399C6.09524 14.1394 5.86602 13.9189 5.86602 13.651C5.86602 13.3832 6.08734 13.1627 6.36399 13.1627H7.4627C7.73935 13.1627 7.96067 13.3832 7.96067 13.651ZM9.90615 11.1934H6.36399C6.08734 11.1934 5.86602 10.9728 5.86602 10.6971C5.86602 10.4293 6.08734 10.2166 6.36399 10.2166H10.8873L9.90615 11.1934ZM13.617 7.49901L12.715 8.39705H6.36399C6.09524 8.39705 5.86602 8.17644 5.86602 7.90863C5.86602 7.64081 6.09524 7.41237 6.36399 7.41237H13.3435C13.4445 7.41237 13.5387 7.44458 13.617 7.49901Z" fill="var(--fill-0, white)"/>
<path id="Vector_4" d="M18.1099 6.73494L18.7027 6.13628C18.9873 5.8527 18.9873 5.46672 18.7106 5.19103L18.5209 5.00197C18.268 4.7499 17.8727 4.78141 17.604 5.04136L17.0112 5.63214L18.1099 6.73494ZM9.24907 14.6672L10.8616 13.9504L17.5249 7.32572L16.4105 6.23081L9.76288 12.8555L9.00407 14.4072C8.93292 14.549 9.09893 14.7302 9.24907 14.6672Z" fill="var(--fill-0, white)"/>
</g>
</svg>
