<svg preserveAspectRatio="xMidYMid meet" width="100%" height="100%" overflow="visible" style="display: block;" viewBox="0 0 8 8" fill="none" xmlns="http://www.w3.org/2000/svg">
<g id="Group">
<path id="Vector" opacity="0" d="M8 0H0V8H8V0Z" fill="var(--fill-0, black)"/>
<path id="Vector_2" d="M5.46442 0.498296L7.47119 2.5169L7.4893 2.49875C8.03166 1.95779 7.97019 1.09734 7.42421 0.552757C6.87822 0.00453822 6.02125 -0.0571818 5.48249 0.480143L5.46442 0.498296ZM0.69876 6.61218L1.38215 7.29836L1.83413 6.84453C2.74532 5.93329 3.81198 6.19468 4.76296 5.23982L7.18195 2.81098L5.16791 0.788743L2.74893 3.22123C1.75458 4.21964 2.06193 5.24346 1.15074 6.15836L0.69876 6.61218ZM3.92406 4.07803C3.68905 3.84207 3.69628 3.47174 3.92406 3.24301L5.01607 2.13932C5.24385 1.91059 5.61267 1.90333 5.83686 2.13932C6.07187 2.36079 6.07187 2.72747 5.83686 2.96346L4.74485 4.07079C4.51707 4.2995 4.14825 4.30314 3.92406 4.07803ZM3.13944 4.43386C3.0382 4.33946 3.05989 4.20511 3.13944 4.12161C3.2226 4.0345 3.34916 4.02721 3.44679 4.12161L3.86622 4.53914C3.96386 4.63354 3.94939 4.76786 3.86622 4.855C3.78669 4.93486 3.65651 4.94575 3.55526 4.84775L3.13944 4.43386ZM4.18443 3.80939C4.27481 3.90014 4.40858 3.92557 4.50622 3.83118L5.60182 2.72384C5.69946 2.62582 5.6705 2.49149 5.58012 2.40435C5.48249 2.31359 5.34508 2.3027 5.24748 2.40072L4.18443 3.47174C4.09042 3.56614 4.09042 3.71499 4.18443 3.80939ZM0.16 7.83932C0.366103 8.05353 0.640906 8.05353 0.850622 7.83932L1.03865 7.65418L0.348023 6.96071L0.16 7.14954C-0.0533335 7.36371 -0.0533335 7.63603 0.16 7.83932Z" fill="var(--fill-0, #34C759)"/>
</g>
</svg>
