<svg preserveAspectRatio="xMidYMid meet" width="100%" height="100%" overflow="visible" style="display: block;" viewBox="0 0 8 8" fill="none" xmlns="http://www.w3.org/2000/svg">
<g id="Group">
<path id="Vector" opacity="0" d="M8 0H0V8H8V0Z" fill="var(--fill-0, black)"/>
<path id="Vector_2" d="M0.658642 3.99805C0.658642 3.64136 0.712566 3.29643 0.812712 2.97894L0.207992 2.72024C0.077034 3.12396 0 3.55121 0 3.99805C0 4.44099 0.077034 4.87214 0.211844 5.27584L0.812712 5.01716C0.712566 4.69967 0.658642 4.35473 0.658642 3.99805ZM2.43043 1.02695L2.18392 0.423324C1.42128 0.811367 0.793453 1.45027 0.412132 2.22637L1.013 2.48114C1.32114 1.85792 1.82186 1.34836 2.43043 1.02695ZM3.92489 0.666343C4.27538 0.666343 4.61434 0.721219 4.93405 0.827048L5.18056 0.215581C4.78382 0.0783929 4.36014 0 3.92489 0C3.48965 0 3.06211 0.0783929 2.66538 0.215581L2.91959 0.827048C3.23543 0.721219 3.57439 0.666343 3.92489 0.666343ZM6.84448 2.47722L7.44151 2.22637C7.05632 1.45027 6.42849 0.811367 5.66585 0.419402L5.41934 1.02695C6.02793 1.34444 6.5325 1.854 6.84448 2.47722ZM7.20269 3.99805C7.20269 4.35473 7.14877 4.69967 7.04863 5.02109L7.64566 5.27978C7.78047 4.87604 7.8575 4.44099 7.8575 3.99805C7.8575 3.55121 7.78047 3.12005 7.64566 2.71632L7.04477 2.97502C7.14877 3.29643 7.20269 3.64136 7.20269 3.99805ZM5.41934 6.96522L5.66585 7.57671C6.43236 7.18473 7.06019 6.54583 7.43764 5.76973L6.84835 5.51887C6.53637 6.14209 6.03179 6.64774 5.41934 6.96522ZM3.92875 7.32975C3.57439 7.32975 3.23543 7.27488 2.91959 7.16904L2.66924 7.78053C3.06596 7.91772 3.4935 7.99611 3.92875 7.99611C4.36401 7.99611 4.78769 7.91772 5.18056 7.78442L4.93019 7.17297C4.61434 7.27488 4.27925 7.32975 3.92875 7.32975ZM1.013 5.51887L0.415986 5.76973C0.801156 6.54583 1.42128 7.18473 2.18392 7.57278L2.43043 6.96133C1.82186 6.6438 1.32114 6.13819 1.013 5.51887Z" fill="var(--fill-0, #34C759)"/>
</g>
</svg>
