<svg preserveAspectRatio="xMidYMid meet" width="100%" height="100%" overflow="visible" style="display: block;" viewBox="0 0 9 8" fill="none" xmlns="http://www.w3.org/2000/svg">
<g id="Group">
<path id="Vector" opacity="0" d="M9 0H0V8H9V0Z" fill="var(--fill-0, black)"/>
<path id="Vector_2" d="M3.70104 7.95704C4.21748 7.95704 4.56923 7.59194 4.56923 7.03712C4.56923 6.49304 4.22871 6.12079 3.68982 6.12079C3.29314 6.12438 2.73181 6.28544 2.42121 6.71857C1.76632 6.68276 0.580042 6.40357 0.583785 5.71991C0.587526 5.27249 0.920582 4.97897 1.78129 4.71052C2.21539 5.1114 3.07235 5.38703 3.70104 5.38703C3.89188 5.38703 4.02661 5.26175 4.02661 5.03622V2.33736C4.02661 1.98657 3.92932 1.88277 3.60749 1.83266C2.50354 1.66801 2.12932 1.39597 2.12558 1.19194C2.12183 0.887696 3.04616 0.49396 4.43825 0.49396C5.83034 0.49396 6.75095 0.887696 6.75095 1.19194C6.74348 1.39597 6.36924 1.66801 5.26527 1.83266C4.94346 1.88277 4.84988 1.98657 4.84988 2.33736V5.03622C4.84988 5.26175 4.98086 5.38703 5.17173 5.38703C5.79294 5.38703 6.64618 5.1114 7.12518 4.68904C7.2449 4.57806 7.27858 4.50647 7.27858 4.23803V1.25637C7.27858 0.486798 6.22703 0 4.43825 0C2.64948 0 1.59418 0.486798 1.59418 1.25637V4.17718C0.56133 4.49218 0 4.93242 0 5.70199C0 6.69709 1.14138 7.13018 2.38005 7.27694C2.56716 7.62057 3.06861 7.95704 3.70104 7.95704Z" fill="var(--fill-0, #34C759)"/>
</g>
</svg>
