<svg preserveAspectRatio="xMidYMid meet" width="100%" height="100%" overflow="visible" style="display: block;" viewBox="0 0 8 5" fill="none" xmlns="http://www.w3.org/2000/svg">
<g id="Group">
<path id="Vector" opacity="0" d="M8 0H0V5H8V0Z" fill="var(--fill-0, black)"/>
<path id="Vector_2" d="M0.44254 4.2505C0.694972 4.2505 0.888194 4.0412 0.888194 3.77449V1.22215C0.888194 0.95206 0.694972 0.739364 0.44254 0.739364C0.193221 0.739364 0 0.95206 0 1.22215V3.77449C0 4.0412 0.193221 4.2505 0.44254 4.2505ZM1.92286 4.99661C2.33736 4.99661 2.62719 4.69615 2.62719 4.27075V0.729238C2.62719 0.300473 2.33736 0 1.92286 0C1.51149 0 1.22166 0.300473 1.22166 0.729238V4.27075C1.22166 4.69615 1.51149 4.99661 1.92286 4.99661ZM2.9887 3.1499H4.92403V1.84673H2.9887V3.1499ZM5.98985 4.99661C6.40437 4.99661 6.6942 4.69615 6.6942 4.27075V0.729238C6.6942 0.300473 6.40437 0 5.98985 0C5.5785 0 5.28867 0.300473 5.28867 0.729238V4.27075C5.28867 4.69615 5.5785 4.99661 5.98985 4.99661ZM7.43901 4.2505C7.68834 4.2505 7.88467 4.0412 7.88467 3.77449V1.22215C7.88467 0.95206 7.68834 0.739364 7.43901 0.739364C7.1897 0.739364 6.99647 0.95206 6.99647 1.22215V3.77449C6.99647 4.0412 7.1897 4.2505 7.43901 4.2505Z" fill="var(--fill-0, #34C759)"/>
</g>
</svg>
