<svg preserveAspectRatio="xMidYMid meet" width="100%" height="100%" overflow="visible" style="display: block;" viewBox="0 0 4 8" fill="none" xmlns="http://www.w3.org/2000/svg">
<g id="Group">
<path id="Vector" opacity="0" d="M4 0H0V8H4V0Z" fill="var(--fill-0, black)"/>
<path id="Vector_2" d="M0 4.79929C0 4.97728 0.159346 5.11614 0.363636 5.11614C0.563842 5.11614 0.723189 4.97728 0.723189 4.79929V3.42857C0.723189 3.36448 0.784474 3.31464 0.858018 3.31464C0.931562 3.31464 0.988763 3.36448 0.988763 3.42857V7.57986C0.988763 7.77214 1.16854 7.92523 1.38917 7.92523C1.60981 7.92523 1.78958 7.77214 1.78958 7.57986V5.05562C1.78958 4.99153 1.85087 4.93459 1.92441 4.93459C1.99796 4.93459 2.06333 4.99153 2.06333 5.05562V7.57986C2.06333 7.77214 2.23902 7.92523 2.45965 7.92523C2.68029 7.92523 2.86006 7.77214 2.86006 7.57986V3.42857C2.86006 3.36448 2.91726 3.31464 2.99081 3.31464C3.06435 3.31464 3.12564 3.36448 3.12564 3.42857V4.79929C3.12564 4.97728 3.28498 5.11614 3.48519 5.11614C3.68948 5.11614 3.84882 4.97728 3.84882 4.79929V3.26835C3.84882 2.48153 3.18693 1.96172 2.21859 1.96172H1.63023C0.661899 1.96172 0 2.48153 0 3.26835V4.79929ZM1.92441 1.55229C2.41879 1.55229 2.81512 1.20694 2.81512 0.776146C2.81512 0.345349 2.41879 0 1.92441 0C1.43003 0 1.03371 0.345349 1.03371 0.776146C1.03371 1.20694 1.43003 1.55229 1.92441 1.55229Z" fill="var(--fill-0, #34C759)"/>
</g>
</svg>
