<svg preserveAspectRatio="xMidYMid meet" width="100%" height="100%" overflow="visible" style="display: block;" viewBox="0 0 14 12" fill="none" xmlns="http://www.w3.org/2000/svg">
<g id="Group">
<path id="Vector" opacity="0" d="M14 0H0V12H14V0Z" fill="var(--fill-0, black)"/>
<path id="Vector_2" d="M2.04357 1.00501C2.04357 1.16989 2.0893 1.32393 2.16823 1.45289H1.97749C1.46914 1.45289 1.21496 1.78061 1.21496 2.38689C1.21496 4.11834 2.70443 7.06238 4.15324 7.06238C5.60203 7.06238 7.09659 4.11834 7.09659 2.38689C7.09659 1.78061 6.8424 1.45289 6.32898 1.45289H6.13315C6.21207 1.32393 6.25782 1.16989 6.25782 1.00501C6.25782 0.846954 6.21581 0.69886 6.14247 0.573508H6.28833C7.36092 0.573508 7.91505 1.19072 7.91505 2.39781C7.91505 4.50982 6.23388 7.5836 4.5598 7.90878C4.61159 9.96451 5.22364 11.1206 6.26797 11.1206C7.47784 11.1206 7.93031 9.96267 8.2912 7.8161C8.69791 5.42922 9.3689 4.52253 10.6093 4.52253C11.9108 4.52253 12.5495 5.63737 12.7414 7.85978C12.6296 7.83154 12.5131 7.81683 12.3936 7.8161C12.2335 7.81515 12.0788 7.83959 11.9331 7.88685C11.822 6.21821 11.41 5.40191 10.6093 5.40191C9.86712 5.40191 9.41976 6.02458 9.09442 8.01275C8.66741 10.6782 7.86419 12 6.31883 12C4.73083 12 3.80503 10.5417 3.74261 7.90777C2.07155 7.57235 0.396515 4.50597 0.396515 2.39781C0.396515 1.19072 0.950617 0.573508 2.01816 0.573508H2.15893C2.08559 0.69886 2.04357 0.846954 2.04357 1.00501Z" fill="var(--fill-0, #8E8E93)"/>
<path id="Vector_3" d="M2.81119 1.82976C3.22803 1.82976 3.57371 1.45835 3.57371 1.00501C3.57371 0.551661 3.22803 0.180246 2.81119 0.180246C2.38925 0.180246 2.04357 0.551661 2.04357 1.00501C2.04357 1.45835 2.38925 1.82976 2.81119 1.82976ZM5.49021 1.82976C5.91212 1.82976 6.25782 1.45835 6.25782 1.00501C6.25782 0.551661 5.91212 0.180246 5.49021 0.180246C5.07335 0.180246 4.72767 0.551661 4.72767 1.00501C4.72767 1.45835 5.07335 1.82976 5.49021 1.82976ZM12.3936 11.2735C13.2781 11.2735 14 10.5034 14 9.54207C14 8.59169 13.2781 7.82158 12.3936 7.8161C11.504 7.81062 10.7822 8.59169 10.7822 9.54207C10.7822 10.5034 11.504 11.2735 12.3936 11.2735ZM12.3936 10.5034C11.9005 10.5034 11.4939 10.0719 11.4939 9.54207C11.4939 9.00681 11.9005 8.58079 12.3936 8.58079C12.8867 8.58079 13.2883 9.00681 13.2883 9.54207C13.2883 10.0719 12.8867 10.5034 12.3936 10.5034Z" fill="var(--fill-0, #8E8E93)"/>
</g>
</svg>
