<svg preserveAspectRatio="xMidYMid meet" width="100%" height="100%" overflow="visible" style="display: block;" viewBox="0 0 9 14" fill="none" xmlns="http://www.w3.org/2000/svg">
<g id="Group">
<path id="Vector" opacity="0" d="M9 0H0V14H9V0Z" fill="var(--fill-0, black)"/>
<path id="Vector_2" d="M8.8063 3.58211V11.2414C8.8063 12.3024 8.26701 12.8279 7.18323 12.8279H1.62304C0.539268 12.8279 0 12.3024 0 11.2414V3.58211C0 2.52112 0.539268 1.99567 1.62304 1.99567H1.69235C1.68794 2.03675 1.68586 2.07893 1.68586 2.12198V2.65247C1.68586 2.70626 1.68916 2.7587 1.69672 2.8091H1.66492C1.12042 2.8091 0.842935 3.09203 0.842935 3.59221V11.2314C0.842935 11.7366 1.12042 12.0145 1.66492 12.0145H7.14136C7.68585 12.0145 7.96335 11.7366 7.96335 11.2314V3.59221C7.96335 3.09203 7.68585 2.8091 7.14136 2.8091H7.10957C7.11713 2.7587 7.1204 2.70626 7.1204 2.65247V2.12198C7.1204 2.07893 7.11836 2.03675 7.11396 1.99567H7.18323C8.26701 1.99567 8.8063 2.52112 8.8063 3.58211Z" fill="var(--fill-0, #D0381A)"/>
<path id="Vector_3" d="M2.78534 3.15266H6.02096C6.32462 3.15266 6.50787 2.96572 6.50787 2.65247V2.12198C6.50787 1.80873 6.32462 1.6218 6.02096 1.6218H5.53925C5.50264 1.05089 5.01047 0.58607 4.40314 0.58607C3.79581 0.58607 3.30367 1.05089 3.26702 1.6218H2.78534C2.48168 1.6218 2.29843 1.80873 2.29843 2.12198V2.65247C2.29843 2.96572 2.48168 3.15266 2.78534 3.15266ZM4.40314 2.10177C4.15183 2.10177 3.94765 1.89968 3.94765 1.66222C3.94765 1.41466 4.15183 1.21762 4.40314 1.21762C4.65445 1.21762 4.85864 1.41466 4.85864 1.66222C4.85864 1.89968 4.65445 2.10177 4.40314 2.10177Z" fill="var(--fill-0, #D0381A)"/>
<path id="Vector_4" d="M2.09424 8.54352H6.71203C6.89528 8.54352 7.04191 8.40202 7.04191 8.22518C7.04191 8.05342 6.89528 7.91699 6.71203 7.91699H2.09424C1.91099 7.91699 1.7644 8.05342 1.7644 8.22518C1.7644 8.40202 1.91099 8.54352 2.09424 8.54352ZM2.09424 10.4331H4.73298C4.911 10.4331 5.05759 10.2916 5.05759 10.1198C5.05759 9.94804 4.91623 9.8066 4.73298 9.8066H2.09424C1.91099 9.8066 1.7644 9.94804 1.7644 10.1198C1.7644 10.2916 1.91623 10.4331 2.09424 10.4331ZM3.3089 7.12885C3.37173 7.12885 3.42409 7.08844 3.43979 7.02274C3.52356 6.5074 3.59163 6.23459 3.77487 6.06283C3.95288 5.886 4.24084 5.82029 4.76963 5.73441C4.8377 5.72432 4.87958 5.67378 4.87958 5.61314C4.87958 5.55251 4.8377 5.50201 4.76963 5.49187C4.24084 5.40599 3.95288 5.34034 3.77487 5.16349C3.59163 4.99171 3.52356 4.71888 3.43979 4.20354C3.42409 4.13787 3.37173 4.09744 3.3089 4.09744C3.24608 4.09744 3.19372 4.13787 3.18325 4.20354C3.09424 4.71888 3.02618 4.99171 2.84293 5.16349C2.66492 5.34034 2.3822 5.40599 1.84817 5.49187C1.78534 5.50201 1.73822 5.55251 1.73822 5.61314C1.73822 5.67378 1.78534 5.72432 1.84817 5.73441C2.3822 5.82029 2.66492 5.886 2.84293 6.06283C3.02618 6.23459 3.09424 6.5074 3.18325 7.02274C3.19372 7.08844 3.24608 7.12885 3.3089 7.12885Z" fill="var(--fill-0, #D0381A)"/>
</g>
</svg>
