<svg preserveAspectRatio="xMidYMid meet" width="100%" height="100%" overflow="visible" style="display: block;" viewBox="0 0 12 14" fill="none" xmlns="http://www.w3.org/2000/svg">
<g id="Group">
<path id="Vector" opacity="0" d="M12 0H0V14H12V0Z" fill="var(--fill-0, black)"/>
<path id="Vector_2" d="M10.4194 2.82101V8.50741C10.196 8.17007 9.90031 7.88232 9.55374 7.66618V2.83152C9.55374 2.31145 9.24731 2.01726 8.70966 2.01726H3.08602C2.52688 2.01726 2.24194 2.3167 2.24194 2.83152V10.7745C2.24194 11.2946 2.52688 11.5888 3.08602 11.5888H5.56152C5.78548 11.9285 6.08294 12.2177 6.43209 12.4345H3.04301C1.93548 12.4345 1.37634 11.8829 1.37634 10.785V2.82101C1.37634 1.72307 1.93548 1.17148 3.04301 1.17148H8.75266C9.86557 1.17148 10.4194 1.71782 10.4194 2.82101Z" fill="var(--fill-0, #8E8E93)"/>
<path id="Vector_3" d="M8.26879 5.66301C8.26879 5.84688 8.12901 5.98873 7.94084 5.98873H3.86021C3.66666 5.98873 3.52688 5.84688 3.52688 5.66301C3.52688 5.48442 3.66666 5.34259 3.86021 5.34259H7.94084C8.12901 5.34259 8.26879 5.48442 8.26879 5.66301Z" fill="var(--fill-0, #8E8E93)"/>
<path id="Vector_4" d="M8.26879 3.82964C8.26879 4.01351 8.12901 4.1606 7.94084 4.1606H3.86021C3.66666 4.1606 3.52688 4.01351 3.52688 3.82964C3.52688 3.65103 3.66666 3.51444 3.86021 3.51444H7.94084C8.12901 3.51444 8.26879 3.65103 8.26879 3.82964Z" fill="var(--fill-0, #8E8E93)"/>
<path id="Vector_5" d="M7.99462 12.1719C9.18279 12.1719 10.1613 11.2158 10.1613 10.0495C10.1613 8.88853 9.18279 7.92719 7.99462 7.92719C6.80106 7.92719 5.82259 8.88853 5.82259 10.0495C5.82259 11.2158 6.80106 12.1719 7.99462 12.1719ZM7.99462 11.4627C7.20427 11.4627 6.54836 10.8218 6.54836 10.0443C6.54836 9.2773 7.20427 8.6364 7.99462 8.6364C8.78492 8.6364 9.44083 9.2773 9.44083 10.0443C9.44083 10.8218 8.78492 11.4627 7.99462 11.4627ZM10.8333 13.2856C11.0807 13.2856 11.2634 13.1017 11.2634 12.839C11.2634 12.7234 11.2043 12.6131 11.1183 12.5291L9.70966 11.1475L9.05914 11.7621L10.4624 13.1227C10.5699 13.233 10.6828 13.2856 10.8333 13.2856Z" fill="var(--fill-0, #8E8E93)"/>
</g>
</svg>
