<svg preserveAspectRatio="xMidYMid meet" width="100%" height="100%" overflow="visible" style="display: block;" viewBox="0 0 20 20" fill="none" xmlns="http://www.w3.org/2000/svg">
<g id="Group">
<path id="Vector" opacity="0" d="M20 0H0V20H20V0Z" fill="white"/>
<path id="Vector_2" d="M13.661 1.24574L18.678 6.29225L18.7232 6.24687C20.0791 4.89447 19.9255 2.74336 18.5605 1.38189C17.1956 0.0113455 15.0531 -0.142955 13.7062 1.20036L13.661 1.24574ZM1.7469 16.5304L3.45537 18.2459L4.58532 17.1113C6.86329 14.8332 9.52995 15.4867 11.9074 13.0996L17.9549 7.02745L12.9198 1.97186L6.87233 8.05308C4.38645 10.5491 5.15481 13.1087 2.87684 15.3959L1.7469 16.5304ZM9.81015 10.1951C9.22262 9.60518 9.2407 8.67936 9.81015 8.10753L12.5402 5.34829C13.1096 4.77648 14.0317 4.75833 14.5922 5.34829C15.1797 5.90196 15.1797 6.81869 14.5922 7.40865L11.8621 10.177C11.2927 10.7487 10.3706 10.7579 9.81015 10.1951ZM7.8486 11.0846C7.5955 10.8487 7.64973 10.5128 7.8486 10.304C8.05651 10.0863 8.3729 10.068 8.61697 10.304L9.66556 11.3479C9.90966 11.5838 9.87346 11.9196 9.66556 12.1375C9.46673 12.3371 9.14126 12.3644 8.88815 12.1194L7.8486 11.0846ZM10.4611 9.52348C10.687 9.75036 11.0215 9.81393 11.2656 9.57795L14.0046 6.80961C14.2486 6.56454 14.1763 6.22871 13.9503 6.01088C13.7062 5.78396 13.3627 5.75674 13.1187 6.0018L10.4611 8.67936C10.226 8.91535 10.226 9.28748 10.4611 9.52348ZM0.400001 19.5983C0.915257 20.1338 1.60227 20.1338 2.12655 19.5983L2.59662 19.1354L0.870058 17.4018L0.400001 17.8738C-0.133334 18.4093 -0.133334 19.0901 0.400001 19.5983Z" fill="var(--fill-0, white)"/>
</g>
</svg>
