<svg preserveAspectRatio="xMidYMid meet" width="100%" height="100%" overflow="visible" style="display: block;" viewBox="0 0 16 19" fill="none" xmlns="http://www.w3.org/2000/svg">
<g id="Group">
<path id="Vector" opacity="0" d="M16 0H0V19H16V0Z" fill="var(--fill-0, black)"/>
<path id="Vector_2" d="M6.57872 0.553632V4.12596C6.57872 4.67075 6.95619 4.81863 7.37217 4.52289L9.82953 2.77953C10.184 2.53048 10.1916 2.1569 9.82953 1.90006L7.37988 0.156707C6.95619 -0.146824 6.57872 -0.0067328 6.57872 0.553632ZM1.30958 9.49613C1.30958 5.83819 4.23688 2.8807 7.85749 2.8807C8.21188 2.8807 8.51227 2.57717 8.51227 2.21138C8.51227 1.85337 8.21953 1.5654 7.86519 1.55762C3.51276 1.5654 0 5.11438 0 9.49613C0 11.831 1.00144 13.9479 2.61146 15.4033C2.95811 15.7224 3.41261 15.6135 3.6206 15.3177C3.79778 15.0687 3.81319 14.7262 3.47425 14.4071C2.13385 13.193 1.30958 11.434 1.30958 9.49613ZM9.13623 18.4308V14.8663C9.13623 14.3137 8.75878 14.1736 8.34283 14.4693L5.88541 16.2127C5.53106 16.4618 5.52335 16.8354 5.88541 17.0921L8.3351 18.8278C8.75878 19.1391 9.13623 18.9912 9.13623 18.4308ZM14.4054 9.49613C14.4054 13.154 11.4781 16.1116 7.85749 16.1116C7.50313 16.1116 7.2104 16.4073 7.2104 16.773C7.2104 17.1311 7.49543 17.4269 7.84978 17.4346C12.2023 17.4269 15.715 13.8778 15.715 9.49613C15.715 7.16126 14.7135 5.04433 13.1035 3.58894C12.7569 3.26984 12.3024 3.37881 12.0943 3.66677C11.9172 3.9236 11.9018 4.25826 12.2484 4.57737C13.5811 5.79927 14.4054 7.5504 14.4054 9.49613Z" fill="var(--fill-0, #3C3C43)" fill-opacity="0.6"/>
</g>
</svg>
