<svg preserveAspectRatio="xMidYMid meet" width="100%" height="100%" overflow="visible" style="display: block;" viewBox="0 0 11.8169 10.4066" fill="none" xmlns="http://www.w3.org/2000/svg">
<path id="Vector" d="M4.57238 9.60989V6.70024C4.57238 6.47257 4.72578 6.32415 4.95341 6.32415H6.86847C7.10106 6.32415 7.24456 6.47257 7.24456 6.70024V9.60989H4.57238ZM1.54392 9.31797C1.54392 10.0058 1.95959 10.4066 2.65732 10.4066H9.16453C9.86229 10.4066 10.273 10.0058 10.273 9.31797V5.38889L6.20537 1.97939C6.01733 1.82103 5.79463 1.82598 5.61155 1.97939L1.54392 5.38889V9.31797ZM0.425568 5.28496C0.564124 5.28496 0.677939 5.21073 0.781858 5.12661L5.73529 0.964952C5.78971 0.920416 5.85401 0.895673 5.90849 0.895673C5.96782 0.895673 6.02721 0.920416 6.08168 0.964952L11.04 5.12661C11.139 5.21073 11.2528 5.28496 11.3914 5.28496C11.6586 5.28496 11.8169 5.09195 11.8169 4.88908C11.8169 4.77527 11.7724 4.6565 11.6586 4.56743L6.50226 0.237526C6.31422 0.0791754 6.11133 0 5.90849 0C5.70559 0 5.5027 0.0791754 5.31466 0.237526L0.158351 4.56743C0.0494846 4.6565 0 4.77527 0 4.88908C0 5.09195 0.158351 5.28496 0.425568 5.28496ZM9.12992 2.65732L10.372 3.7064V1.47464C10.372 1.25691 10.2334 1.11835 10.0157 1.11835H9.4862C9.27343 1.11835 9.12992 1.25691 9.12992 1.47464V2.65732Z" fill="white"/>
</svg>
