<svg preserveAspectRatio="xMidYMid meet" width="100%" height="100%" overflow="visible" style="display: block;" viewBox="0 0 10 14" fill="none" xmlns="http://www.w3.org/2000/svg">
<g id="Group">
<path id="Vector_2" d="M1.879 1.60459V2.25523C1.879 2.95 2.37348 3.44074 3.09482 3.44074H6.68996C7.41129 3.44074 7.90577 2.95 7.90577 2.25523V1.60459C7.90577 1.58253 7.90577 1.55496 7.90577 1.5329H8.03957C9.18557 1.5329 9.78478 2.10636 9.78478 3.26429V11.629C9.78478 12.787 9.18557 13.3604 7.98137 13.3604H1.80337C0.599186 13.3604 0 12.787 0 11.629V3.26429C0 2.10636 0.599186 1.5329 1.7452 1.5329H1.879C1.879 1.55496 1.879 1.58253 1.879 1.60459ZM2.24549 10.6751C2.03607 10.6751 1.86737 10.835 1.86737 11.0335C1.86737 11.2265 2.04188 11.3864 2.24549 11.3864H5.27051C5.47411 11.3864 5.64282 11.2265 5.64282 11.0335C5.64282 10.835 5.47993 10.6751 5.27051 10.6751H2.24549ZM2.24549 8.55222C2.03607 8.55222 1.86737 8.70659 1.86737 8.89958C1.86737 9.0981 2.03607 9.25801 2.24549 9.25801H7.53924C7.74869 9.25801 7.91739 9.0981 7.91739 8.89958C7.91739 8.70659 7.74869 8.55222 7.53924 8.55222H2.24549ZM3.4555 5.2769C3.31007 5.01223 3.0541 4.83578 2.73415 4.83578C2.23968 4.83578 1.87318 5.1997 1.87318 5.7015C1.87318 6.44032 2.71088 7.08547 3.31007 7.48252C3.36242 7.52109 3.4206 7.54316 3.46132 7.54316C3.50204 7.54316 3.5544 7.51555 3.60675 7.48252C4.21757 7.12409 5.03781 6.44032 5.03781 5.7015C5.03781 5.1997 4.67132 4.83578 4.16522 4.83578C3.8569 4.83578 3.60093 5.01223 3.4555 5.2769ZM6.15473 1.13038H6.68996C7.02736 1.13038 7.23097 1.3344 7.23097 1.67627V2.25523C7.23097 2.5971 7.02736 2.80112 6.68996 2.80112H3.09482C2.75742 2.80112 2.55381 2.5971 2.55381 2.25523V1.67627C2.55381 1.3344 2.75742 1.13038 3.09482 1.13038H3.63002C3.67074 0.507302 4.21757 1.45603e-05 4.89238 1.45603e-05C5.56719 1.45603e-05 6.11404 0.507302 6.15473 1.13038ZM4.38627 1.17449C4.38627 1.43365 4.61315 1.65421 4.89238 1.65421C5.17161 1.65421 5.39849 1.43365 5.39849 1.17449C5.39849 0.904307 5.17161 0.689261 4.89238 0.689261C4.61315 0.689261 4.38627 0.904307 4.38627 1.17449Z" fill="white" />
</g>
</svg>
