<svg preserveAspectRatio="xMidYMid meet" width="100%" height="100%" overflow="visible" style="display: block;" viewBox="0 0 12 10" fill="none" xmlns="http://www.w3.org/2000/svg">
<g id="Group">
<path id="Vector_2" d="M11.8148 7.08437C11.6393 5.84594 10.541 4.88542 9.21206 4.88542C7.8831 4.88542 6.78986 5.84594 6.61433 7.08437H11.8148ZM11.8148 7.79618H6.61433C6.79489 9.03951 7.8831 10 9.21206 10C10.551 10 11.6393 9.03951 11.8148 7.79618Z" fill="white"/>
<path id="Vector_3" d="M5.2653 5.83131L2.29148 2.94003L0.716797 4.47586C-0.220993 5.38271 -0.236038 6.55779 0.656616 7.42078C1.55429 8.28866 2.75787 8.26914 3.68563 7.36716L5.2653 5.83131Z" fill="white"/>
<path id="Vector_4" d="M5.79187 5.31446L7.36655 3.78352C8.30435 2.87665 8.3194 1.70161 7.42673 0.838616C6.52909 -0.029254 5.32548 -0.00487568 4.39774 0.897126L2.82306 2.42808L5.79187 5.31446Z" fill="white"/>
</g>
</svg>
