<svg preserveAspectRatio="none" width="100%" height="100%" overflow="visible" style="display: block;" viewBox="0 0 19 20" fill="none" xmlns="http://www.w3.org/2000/svg">
<g id="Group">
<path id="Vector" opacity="0" d="M19 0H0V20H19V0Z" fill="var(--fill-0, black)"/>
<path id="Vector_2" d="M9.24139 20H9.36825C10.7247 20 11.2419 19.5799 11.2419 18.2625V11.8281L9.97328 12.506L15.6918 15.7422C16.1212 15.9618 16.4627 16.105 16.775 16.105C17.3117 16.105 17.6826 15.7422 18.1314 15.0835L18.1998 14.9785C18.4926 14.5489 18.6389 14.1575 18.6389 13.8329C18.6389 13.2983 18.2583 12.8974 17.585 12.5346L11.7591 9.24104V10.6062L17.5752 7.46539C18.2583 7.11217 18.6096 6.72076 18.6096 6.18615C18.6096 5.86157 18.4633 5.48925 18.2193 5.05966L18.151 4.93556C17.7118 4.23866 17.3117 3.88544 16.7848 3.88544C16.4725 3.88544 16.1114 4.02863 15.6821 4.2482L9.98303 7.48448L11.2419 8.16229V1.73747C11.2419 0.420048 10.7247 0 9.36825 0H9.24139C7.88493 0 7.36774 0.420048 7.36774 1.73747V8.16229L8.65587 7.48448L2.93733 4.2482C2.50796 4.00954 2.10786 3.8568 1.77606 3.8568C1.23934 3.8568 0.800204 4.21957 0.458653 4.95465L0.400103 5.05966C0.185413 5.4988 0.0487929 5.88066 0.0487929 6.20525C0.0487929 6.71121 0.370827 7.10262 1.05393 7.47493L6.87981 10.6062V9.24104L1.04417 12.5346C0.370827 12.8974 0 13.2888 0 13.8139C0 14.1384 0.156137 14.5298 0.40986 14.969L0.468412 15.0549C0.878273 15.7518 1.26862 16.1146 1.82485 16.1146C2.13713 16.1146 2.50796 15.9618 2.92758 15.7422L8.65587 12.506L7.36774 11.8281V18.2625C7.36774 19.5799 7.88493 20 9.24139 20Z" fill="var(--fill-0, white)"/>
</g>
</svg>
