<svg preserveAspectRatio="xMidYMid meet" width="100%" height="100%" overflow="visible" style="display: block;" viewBox="0 0 20 20" fill="none" xmlns="http://www.w3.org/2000/svg">
<g id="Group">
<path id="Vector" opacity="0" d="M20 0H0V20H20V0Z" fill="var(--fill-0, black)"/>
<path id="Vector_2" d="M9.82186 19.9903C15.2432 19.9903 19.6437 15.5121 19.6437 9.99512C19.6437 4.47821 15.2432 0 9.82186 0C4.40058 0 0 4.47821 0 9.99512C0 15.5121 4.40058 19.9903 9.82186 19.9903ZM9.82186 18.3244C5.2961 18.3244 1.63698 14.6007 1.63698 9.99512C1.63698 5.38952 5.2961 1.66586 9.82186 1.66586C14.3476 1.66586 18.0067 5.38952 18.0067 9.99512C18.0067 14.6007 14.3476 18.3244 9.82186 18.3244Z" fill="var(--fill-0, white)"/>
<path id="Vector_3" d="M9.82186 16.2077C13.1921 16.2077 15.9268 13.4248 15.9268 9.99512C15.9268 6.56542 13.1921 3.78247 9.82186 3.78247C6.45162 3.78247 3.7169 6.56542 3.7169 9.99512C3.7169 13.4248 6.45162 16.2077 9.82186 16.2077ZM9.82186 14.6301C7.29899 14.6301 5.26722 12.5625 5.26722 9.99512C5.26722 7.42774 7.29899 5.36013 9.82186 5.36013C12.3447 5.36013 14.3765 7.42774 14.3765 9.99512C14.3765 12.5625 12.3447 14.6301 9.82186 14.6301Z" fill="var(--fill-0, white)"/>
<path id="Vector_4" d="M9.82186 12.5233C11.1988 12.5233 12.3158 11.3964 12.3158 9.98532C12.3158 8.58405 11.1988 7.44735 9.82186 7.44735C8.44487 7.44735 7.32788 8.58405 7.32788 9.98532C7.32788 11.3964 8.44487 12.5233 9.82186 12.5233Z" fill="var(--fill-0, white)"/>
</g>
</svg>
