<svg preserveAspectRatio="xMidYMid meet" width="100%" height="100%" overflow="visible" style="display: block;" viewBox="0 0 14 14" fill="none" xmlns="http://www.w3.org/2000/svg">
<g id="Group">
<path id="Vector" opacity="0" d="M14 0H0V14H14V0Z" fill="var(--fill-0, black)"/>
<path id="Vector_2" d="M10.2151 13.9998C11.4392 13.9998 12.2483 13.6629 12.9588 12.8529C13.0151 12.7883 13.0643 12.731 13.1206 12.6665C13.5427 12.1934 13.7397 11.7274 13.7397 11.283C13.7397 10.7669 13.4513 10.2651 12.8251 9.82785L11.0593 8.5949C10.5176 8.22216 10.0603 8.20065 9.38489 8.53038L8.29449 9.07518C8.08341 9.17552 7.9005 9.17552 7.69649 9.04655C7.38693 8.84579 6.60603 8.20785 6.07839 7.65586C5.54372 7.11109 5.02312 6.45878 4.79095 6.05019C4.6995 5.88532 4.71357 5.74913 4.83316 5.55558L5.46633 4.54485C5.7407 4.10042 5.82513 3.49112 5.47337 2.97501L4.0804 0.93922C3.64422 0.301246 3.17287 0.00734742 2.66633 0.000179173C2.23015 -0.00698909 1.77287 0.200891 1.30151 0.630986C1.24523 0.681163 1.18191 0.738507 1.12563 0.795857C0.330653 1.51268 0 2.33703 0 3.57714C0 5.62726 1.24523 8.13613 3.50352 10.43C5.74774 12.7167 8.203 13.9998 10.2151 13.9998ZM10.2221 12.9102C8.42812 12.9461 6.13467 11.5411 4.31256 9.69169C2.47638 7.82791 1.03417 5.40505 1.06935 3.56998C1.08342 2.78147 1.35075 2.10765 1.90653 1.61304C1.94874 1.57719 1.99095 1.54135 2.03317 1.50552C2.24422 1.31914 2.47638 1.21878 2.67337 1.21878C2.88442 1.21878 3.0603 1.29763 3.201 1.51268L4.46733 3.44811C4.58694 3.62732 4.5799 3.78502 4.4392 4.03591L3.73568 5.18283C3.42613 5.69178 3.48241 6.07886 3.79196 6.50896C4.2 7.06091 4.81206 7.85661 5.35377 8.40141C5.88844 8.94613 6.78191 9.72031 7.26734 10.0644C7.68943 10.3798 8.06936 10.4515 8.72363 10.1289L9.90553 9.55545C10.1729 9.4336 10.3839 9.46942 10.6091 9.61278L12.2553 10.7383C12.4663 10.8744 12.5437 11.0608 12.5437 11.2759C12.5437 11.4766 12.4452 11.7131 12.2623 11.9281C12.2272 11.9711 12.1919 12.0142 12.1568 12.0572C11.6714 12.6235 11.003 12.8959 10.2221 12.9102Z" fill="var(--fill-0, #8B5CF6)"/>
</g>
</svg>
