<svg preserveAspectRatio="xMidYMid meet" width="100%" height="100%" overflow="visible" style="display: block;" viewBox="0 0 11 14" fill="none" xmlns="http://www.w3.org/2000/svg">
<g id="Group">
<path id="Vector" opacity="0" d="M11 0H0V14H11V0Z" fill="var(--fill-0, black)"/>
<path id="Vector_2" d="M2.89238 5.30628H3.97382C4.1658 5.30628 4.28738 5.19533 4.33217 5.02563L4.58174 4.00093L5.13206 6.70302C5.20244 7.06199 5.66958 7.06199 5.77836 6.70957L6.39267 4.54918L6.50786 5.00605C6.54625 5.19533 6.6742 5.30628 6.8662 5.30628H7.87085C8.05642 5.30628 8.20359 5.14964 8.20359 4.96689C8.20359 4.77762 8.06284 4.63402 7.87085 4.63402H7.06454L6.7318 3.32214C6.64865 2.98275 6.2007 2.98928 6.09192 3.33519L5.49041 5.32587L4.90809 2.44102C4.8313 2.08204 4.36417 2.07552 4.28098 2.4345L3.75625 4.63402H2.89238C2.70681 4.63402 2.55963 4.78414 2.55963 4.96689C2.55963 5.14964 2.70681 5.30628 2.89238 5.30628ZM2.94358 9.08533H7.83245C8.06284 9.08533 8.22921 8.90254 8.22921 8.6741C8.22921 8.45221 8.06284 8.28252 7.83245 8.28252H2.94358C2.7132 8.28252 2.54043 8.45221 2.54043 8.6741C2.54043 8.90254 2.7132 9.08533 2.94358 9.08533ZM2.94358 11.0433H5.25364C5.48401 11.0433 5.65038 10.8736 5.65038 10.6517C5.65038 10.4233 5.48401 10.2406 5.25364 10.2406H2.94358C2.7132 10.2406 2.54043 10.4233 2.54043 10.6517C2.54043 10.8736 2.7132 11.0433 2.94358 11.0433ZM0 11.9506C0 13.3147 0.659105 13.9935 1.98371 13.9935H8.7795C10.1041 13.9935 10.7633 13.3147 10.7633 11.9506V2.04942C10.7633 0.691843 10.1041 0 8.7795 0H1.98371C0.659105 0 0 0.691843 0 2.04942V11.9506ZM1.03025 11.931V2.06899C1.03025 1.41631 1.3694 1.05082 2.03491 1.05082H8.72833C9.39381 1.05082 9.73298 1.41631 9.73298 2.06899V11.931C9.73298 12.5836 9.39381 12.9426 8.72833 12.9426H2.03491C1.3694 12.9426 1.03025 12.5836 1.03025 11.931Z" fill="var(--fill-0, #D0381A)"/>
</g>
</svg>
