<svg preserveAspectRatio="xMidYMid meet" width="100%" height="100%" overflow="visible" style="display: block;" viewBox="0 0 14 14" fill="none" xmlns="http://www.w3.org/2000/svg">
<g id="Group">
<path id="Vector" opacity="0" d="M14 0H0V14H14V0Z" fill="var(--fill-0, black)"/>
<path id="Vector_2" d="M10.2048 13.9998C11.4277 13.9998 12.236 13.6629 12.9458 12.8529C13.002 12.7883 13.0512 12.731 13.1004 12.6665C13.5221 12.1934 13.7259 11.7274 13.7259 11.283C13.7259 10.7669 13.4378 10.2651 12.8122 9.82785L11.0482 8.5949C10.507 8.22216 10.0502 8.20065 9.37548 8.53038L8.27912 9.07518C8.07531 9.17552 7.89258 9.17552 7.68877 9.04655C7.37952 8.84579 6.5994 8.20785 6.06527 7.65586C5.53816 7.11109 5.01808 6.45878 4.78615 6.05019C4.69479 5.88532 4.70884 5.74913 4.82832 5.55558L5.46085 4.54485C5.73495 4.10042 5.81929 3.49112 5.46085 2.97501L4.07631 0.93922C3.64056 0.301246 3.16265 0.00734742 2.66366 0.000179173C2.22791 -0.00698909 1.77109 0.200891 1.3002 0.630986C1.24398 0.681163 1.18072 0.738507 1.1245 0.795857C0.330321 1.51268 0 2.33703 0 3.57714C0 5.62726 1.23695 8.13613 3.49298 10.43C5.74198 12.7167 8.19478 13.9998 10.2048 13.9998ZM10.2119 12.9102C8.41968 12.9461 6.12149 11.5411 4.30121 9.69169C2.4739 7.82791 1.03314 5.40505 1.06828 3.56998C1.08233 2.78147 1.3494 2.10765 1.90462 1.61304C1.94679 1.57719 1.98896 1.54135 2.03113 1.50552C2.24197 1.31914 2.4739 1.21878 2.67069 1.21878C2.88153 1.21878 3.05723 1.29763 3.1978 1.51268L4.46286 3.44811C4.58234 3.62732 4.57531 3.78502 4.42771 4.03591L3.73193 5.18283C3.4227 5.69178 3.47189 6.07886 3.78816 6.50896C4.18876 7.06091 4.80724 7.85661 5.3484 8.40141C5.88254 8.94613 6.77511 9.72031 7.253 10.0644C7.68172 10.3798 8.06127 10.4515 8.70784 10.1289L9.89559 9.55545C10.1627 9.4336 10.3735 9.46942 10.5984 9.61278L12.243 10.7383C12.4468 10.8744 12.5311 11.0608 12.5311 11.2759C12.5311 11.4766 12.4328 11.7131 12.25 11.9281C12.2079 11.9711 12.1797 12.0142 12.1375 12.0572C11.6597 12.6235 10.992 12.8959 10.2119 12.9102Z" fill="var(--fill-0, #D06A1A)"/>
<path id="Vector_3" d="M12.9458 0.953556L12.7701 3.74201L12.7631 4.81008C12.7701 5.08964 12.9809 5.30469 13.2551 5.31903C13.5291 5.33336 13.7751 5.10398 13.7751 4.81008V0.652491C13.7681 0.279741 13.5854 0.0861986 13.2199 0.0861986H9.1295C8.84141 0.0861986 8.61651 0.329919 8.63759 0.623817C8.65163 0.903378 8.85544 1.11126 9.1295 1.10409L10.1978 1.11126L12.9458 0.953556ZM13.1847 1.33347C13.3394 1.15427 13.3464 0.874706 13.1847 0.702668C13.0161 0.53063 12.7349 0.537799 12.5593 0.702668L11.0834 2.09331L8.06128 5.19C7.94879 5.30469 7.88553 5.43372 7.88553 5.58425C7.89258 5.86382 8.11748 6.08603 8.41269 6.07886C8.55325 6.08603 8.67272 6.03585 8.77815 5.92833L11.8072 2.83881L13.1847 1.33347Z" fill="var(--fill-0, #D06A1A)"/>
</g>
</svg>
