<svg preserveAspectRatio="xMidYMid meet" width="100%" height="100%" overflow="visible" style="display: block;" viewBox="0 0 20 20" fill="none" xmlns="http://www.w3.org/2000/svg">
<g id="Group">
<path id="Vector" opacity="0" d="M20 0H0V20H20V0Z" fill="var(--fill-0, black)"/>
<path id="Vector_2" d="M19.6437 10.0049C19.6437 15.5219 15.2432 20 9.82186 20C4.41021 20 0 15.5219 0 10.0049C0 4.49777 4.41021 0.00976562 9.82186 0.00976562C15.2432 0.00976562 19.6437 4.49777 19.6437 10.0049ZM10.2455 12.8075C10.4381 14.1206 11.5552 15.1592 12.9225 15.1592C14.3091 15.1592 15.4357 14.1206 15.6186 12.8075H10.2455ZM4.43909 9.20135C3.47617 10.1813 3.44728 11.4453 4.36206 12.3861C5.2961 13.317 6.52864 13.2876 7.49158 12.3175L9.11893 10.6713L6.04718 7.53551L4.43909 9.20135ZM10.2455 11.9844H15.6186C15.4357 10.6713 14.2995 9.63252 12.9225 9.63252C11.5647 9.63252 10.4381 10.6713 10.2455 11.9844ZM8.2234 5.3111L6.62494 6.95735L9.68705 10.0735L11.3144 8.43702C12.2869 7.46691 12.2966 6.18322 11.3625 5.2621C10.4285 4.31159 9.18633 4.33119 8.2234 5.3111Z" fill="var(--fill-0, white)"/>
</g>
</svg>
