<svg preserveAspectRatio="xMidYMid meet" width="100%" height="100%" overflow="visible" style="display: block;" viewBox="0 0 8 8.00001" fill="none" xmlns="http://www.w3.org/2000/svg">
<g id="Group">
<path id="Vector" opacity="0" d="M8 0H0V8H8V0Z" fill="var(--fill-0, black)"/>
<path id="Vector_2" d="M7.06391 0.140546L0.127568 7.23431C-0.0400487 7.40572 -0.0449786 7.69813 0.127568 7.86954C0.300114 8.04099 0.586047 8.04099 0.753663 7.86954L7.69004 0.775807C7.85764 0.604388 7.86259 0.311965 7.69004 0.140546C7.51749 -0.0359156 7.23646 -0.0409574 7.06391 0.140546ZM7.69004 7.23431L0.753663 0.140546C0.586047 -0.0359156 0.295184 -0.0409574 0.127568 0.140546C-0.0400487 0.317007 -0.0400487 0.604388 0.127568 0.775807L7.06391 7.86954C7.23156 8.04099 7.52239 8.046 7.69004 7.86954C7.85764 7.69307 7.85764 7.40572 7.69004 7.23431Z" fill="var(--fill-0, #8E8E93)"/>
</g>
</svg>
