<svg preserveAspectRatio="xMidYMid meet" width="100%" height="100%" overflow="visible" style="display: block;" viewBox="0 0 20.2832 19.9316" fill="none" xmlns="http://www.w3.org/2000/svg">
<g id="Group">
<path id="Vector" opacity="0" d="M20.2832 0H0V19.9316H20.2832V0Z" fill="white"/>
<path id="Vector_2" d="M9.96094 19.9219C15.459 19.9219 19.9219 15.459 19.9219 9.96094C19.9219 4.46289 15.459 0 9.96094 0C4.46289 0 0 4.46289 0 9.96094C0 15.459 4.46289 19.9219 9.96094 19.9219ZM9.96094 18.2617C5.37109 18.2617 1.66016 14.5508 1.66016 9.96094C1.66016 5.37109 5.37109 1.66016 9.96094 1.66016C14.5508 1.66016 18.2617 5.37109 18.2617 9.96094C18.2617 14.5508 14.5508 18.2617 9.96094 18.2617Z" fill="var(--fill-0, white)"/>
<path id="Vector_3" d="M11.8164 7.19727L10.0098 8.87695L6.41602 12.4805C6.26953 12.6172 6.18164 12.8125 6.18164 13.0078C6.18164 13.4473 6.46484 13.7305 6.89453 13.7305C7.12891 13.7305 7.31445 13.6426 7.45117 13.5059L11.0449 9.91211L12.7246 8.11523C13.4375 7.35352 12.5488 6.51367 11.8164 7.19727ZM12.3047 9.93164V11.6211C12.3047 12.0801 12.5879 12.3828 13.0273 12.3828C13.457 12.3828 13.7402 12.0508 13.7402 11.6016V6.99219C13.7402 6.41602 13.4277 6.19141 12.9297 6.19141H8.29102C7.83203 6.19141 7.53906 6.47461 7.53906 6.9043C7.53906 7.33398 7.8418 7.61719 8.31055 7.61719H10.0879L12.5781 7.32422L12.3047 9.93164Z" fill="var(--fill-0, white)"/>
</g>
</svg>
