<svg preserveAspectRatio="xMidYMid meet" width="100%" height="100%" overflow="visible" style="display: block;" viewBox="0 0 20 18" fill="none" xmlns="http://www.w3.org/2000/svg">
<g id="Group">
<path id="Vector" opacity="0" d="M20 0H0V18H20V0Z" fill="white"/>
<path id="Vector_2" d="M12.0113 1.29042L19.2874 14.0251C19.5218 14.4396 19.6531 14.9011 19.6531 15.3438C19.6531 16.7849 18.6873 17.8964 17.0932 17.8964H2.55978C0.965775 17.8964 0 16.7849 0 15.3438C0 14.9011 0.112518 14.449 0.365681 14.0251L7.64181 1.29042C8.12001 0.433282 8.96389 0 9.82655 0C10.6891 0 11.5237 0.433282 12.0113 1.29042ZM8.78574 13.752C8.78574 14.3077 9.27331 14.7598 9.83586 14.7598C10.3891 14.7598 10.8767 14.3172 10.8767 13.752C10.8767 13.1774 10.3985 12.7347 9.83586 12.7347C9.26394 12.7347 8.78574 13.1868 8.78574 13.752ZM8.94514 5.69859L9.06703 10.8226C9.0764 11.3218 9.34833 11.6044 9.83586 11.6044C10.2954 11.6044 10.5673 11.3312 10.5766 10.8226L10.7173 5.70801C10.7267 5.20879 10.3328 4.84145 9.82655 4.84145C9.30144 4.84145 8.93576 5.19937 8.94514 5.69859Z" fill="var(--fill-0, white)"/>
</g>
</svg>
