<svg preserveAspectRatio="xMidYMid meet" width="100%" height="100%" overflow="visible" style="display: block;" viewBox="0 0 14 14" fill="none" xmlns="http://www.w3.org/2000/svg">
<g id="Group">
<path id="Vector" opacity="0" d="M14 0H0V14H14V0Z" fill="white"/>
<path id="Vector_2" d="M6.8753 13.9932C10.6702 13.9932 13.7506 10.8584 13.7506 6.99659C13.7506 3.13474 10.6702 0 6.8753 0C3.0804 0 0 3.13474 0 6.99659C0 10.8584 3.0804 13.9932 6.8753 13.9932ZM6.8753 12.8271C3.70727 12.8271 1.14589 10.2205 1.14589 6.99659C1.14589 3.77267 3.70727 1.1661 6.8753 1.1661C10.0433 1.1661 12.6047 3.77267 12.6047 6.99659C12.6047 10.2205 10.0433 12.8271 6.8753 12.8271Z" fill="var(--fill-0, #8E8E93)"/>
<path id="Vector_3" d="M5.69571 10.8379H8.43912C8.71549 10.8379 8.93118 10.6321 8.93118 10.3508C8.93118 10.0833 8.71549 9.87065 8.43912 9.87065H7.60326V6.37924C7.60326 6.00883 7.42131 5.76189 7.07751 5.76189H5.81031C5.53395 5.76189 5.31825 5.97453 5.31825 6.24205C5.31825 6.52329 5.53395 6.72907 5.81031 6.72907H6.53154V9.87065H5.69571C5.41935 9.87065 5.20366 10.0833 5.20366 10.3508C5.20366 10.6321 5.41935 10.8379 5.69571 10.8379ZM6.81464 4.62323C7.30667 4.62323 7.69092 4.22538 7.69092 3.72465C7.69092 3.22391 7.30667 2.82607 6.81464 2.82607C6.32932 2.82607 5.93838 3.22391 5.93838 3.72465C5.93838 4.22538 6.32932 4.62323 6.81464 4.62323Z" fill="var(--fill-0, #8E8E93)"/>
</g>
</svg>
