<svg preserveAspectRatio="xMidYMid meet" width="100%" height="100%" overflow="visible" style="display: block;" viewBox="0 0 20 22" fill="none" xmlns="http://www.w3.org/2000/svg">
<g id="Group">
<path id="Vector" opacity="0" d="M20 0H0V22H20V0Z" fill="white"/>
<path id="Vector_2" d="M0.705881 12.9761H5.04902C5.49019 12.9761 5.75489 12.7718 5.85294 12.3633L7.37254 5.09215H7.28431L9.90195 21.4523C10.0196 22.1876 11.1079 22.1775 11.2451 21.4523L13.7745 9.11583L13.6961 9.10561L14.3235 12.2817C14.4118 12.7514 14.6667 12.9761 15.1275 12.9761H18.9313C19.3235 12.9761 19.6372 12.6595 19.6372 12.2613C19.6372 11.8527 19.3333 11.5362 18.9313 11.5362H15.2647L15.5 11.6894L14.3333 6.33806C14.1863 5.62319 13.1765 5.63341 13.0098 6.36869L10.4804 18.113H10.598L7.97057 1.54846C7.86273 0.833592 6.86274 0.813166 6.70588 1.54846L4.59804 11.6894L4.72548 11.5362H0.705881C0.303921 11.5362 0 11.863 0 12.2613C0 12.6595 0.303921 12.9761 0.705881 12.9761Z" fill="var(--fill-0, white)"/>
</g>
</svg>
