<svg preserveAspectRatio="xMidYMid meet" width="100%" height="100%" overflow="visible" style="display: block;" viewBox="0 0 8 8" fill="none" xmlns="http://www.w3.org/2000/svg">
<g id="Group">
<path id="Vector" opacity="0" d="M8 0H0V8H8V0Z" fill="var(--fill-0, #D0381A)"/>
<path id="Vector_2" d="M6.64802 5.27195C6.7635 6.23617 6.78211 6.25186 7.71694 6.39294C7.8026 6.40864 7.86217 6.47133 7.86217 6.55759C7.86217 6.63991 7.8026 6.70654 7.72064 6.72219C6.77094 6.91429 6.7672 6.90642 6.64802 7.84716C6.63684 7.93337 6.56983 7.99611 6.49161 7.99611C6.40596 7.99611 6.34265 7.92948 6.33517 7.83929C6.22347 6.89859 6.20482 6.8829 5.27372 6.72219C5.18063 6.70654 5.12102 6.6438 5.12102 6.55759C5.12102 6.4792 5.17689 6.41257 5.25885 6.39294C6.20482 6.20482 6.22347 6.21658 6.33517 5.27584C6.34265 5.18569 6.40596 5.11907 6.49161 5.11907C6.57353 5.11907 6.64058 5.1818 6.64802 5.27195Z" fill="var(--fill-0, #D0381A)"/>
<path id="Vector_3" d="M2.57355 0.11367C2.70018 0.827049 2.68156 0.803528 3.3594 0.944639C3.42644 0.956395 3.47113 1.00735 3.47113 1.07399C3.47113 1.14062 3.42644 1.1955 3.3594 1.20725C2.68156 1.34836 2.70018 1.32484 2.57355 2.03822C2.56238 2.10878 2.51024 2.15189 2.44692 2.15189C2.38361 2.15189 2.33147 2.10878 2.32029 2.03822C2.19366 1.32484 2.21229 1.34836 1.53445 1.20725C1.46741 1.1955 1.42272 1.14062 1.42272 1.07399C1.42272 1.00735 1.46741 0.956395 1.53445 0.944639C2.21229 0.803528 2.19366 0.827049 2.32029 0.11367C2.33147 0.0431163 2.38361 0 2.44692 0C2.51024 0 2.56238 0.0431163 2.57355 0.11367Z" fill="var(--fill-0, #D0381A)"/>
<path id="Vector_4" d="M3.49348 6.75358C3.49348 7.36896 3.01676 7.87068 2.43947 7.87068C1.85474 7.87068 1.37802 7.36896 1.37802 6.75358C1.37802 6.14602 1.85474 5.6443 2.43947 5.6443C3.01676 5.6443 3.49348 6.14602 3.49348 6.75358Z" fill="var(--fill-0, #D0381A)"/>
<path id="Vector_5" d="M1.9702 3.28467C1.9702 3.85694 1.52327 4.32339 0.986963 4.32339C0.443202 4.32339 0 3.85694 0 3.28467C0 2.72024 0.443202 2.2538 0.986963 2.2538C1.52327 2.2538 1.9702 2.72024 1.9702 3.28467Z" fill="var(--fill-0, #D0381A)"/>
<path id="Vector_6" d="M7.7132 2.28908C7.7132 3.21275 7.07447 3.97788 6.23529 4.12029C6.25276 4.02107 6.26069 3.91845 6.26069 3.81382C6.26069 2.76336 5.45251 1.91279 4.45437 1.91279C4.3747 1.91279 4.29625 1.91821 4.21986 1.93058C4.37825 1.07866 5.09238 0.43508 5.94785 0.43508C6.92364 0.43508 7.7132 1.26605 7.7132 2.28908Z" fill="var(--fill-0, #D0381A)"/>
<path id="Vector_7" d="M4.45437 5.26019C5.21415 5.26019 5.82867 4.61735 5.82867 3.81382C5.82867 3.01422 5.21415 2.36747 4.45437 2.36747C3.69459 2.36747 3.08007 3.01422 3.08007 3.81382C3.08007 4.61735 3.69459 5.26019 4.45437 5.26019Z" fill="var(--fill-0, #D0381A)"/>
</g>
</svg>
