<svg preserveAspectRatio="xMidYMid meet" width="100%" height="100%" overflow="visible" style="display: block;" viewBox="0 0 20 23" fill="none" xmlns="http://www.w3.org/2000/svg">
<g id="Group">
<path id="Vector" opacity="0" d="M20 0H0V23H20V0Z" fill="var(--fill-0, white)"/>
<path id="Vector_2" d="M4.09572 14.8298C3.89324 14.8298 3.75518 14.9588 3.73677 15.1706C3.38702 18.0168 3.24897 18.0905 0.368155 18.5602C0.128854 18.5878 0 18.7076 0 18.9195C0 19.1221 0.128854 19.2419 0.322135 19.2695C3.23055 19.8314 3.38702 19.813 3.73677 22.65C3.75518 22.871 3.89324 23 4.09572 23C4.289 23 4.43626 22.871 4.45467 22.6591C4.82283 19.7761 4.93328 19.6932 7.8601 19.2695C8.04418 19.2511 8.18224 19.1221 8.18224 18.9195C8.18224 18.7169 8.04418 18.5878 7.8601 18.5602C4.93328 17.9983 4.83203 17.9983 4.45467 15.1522C4.43626 14.9588 4.289 14.8298 4.09572 14.8298Z" fill="var(--fill-0, white)"/>
<path id="Vector_3" d="M11.2931 3.05807C11.0262 3.05807 10.8145 3.2515 10.7777 3.53704C9.97696 9.36763 9.17626 10.1414 3.43304 10.9059C3.13852 10.9335 2.92683 11.1454 2.92683 11.4217C2.92683 11.7072 3.13852 11.9283 3.43304 11.9559C9.19466 12.5822 10.023 13.485 10.7777 19.3064C10.8145 19.5919 11.0262 19.7945 11.2931 19.7945C11.5693 19.7945 11.7717 19.5919 11.8178 19.3064C12.5817 13.485 13.4009 12.5822 19.1624 11.9559C19.4662 11.9283 19.6595 11.7072 19.6595 11.4217C19.6595 11.1454 19.4662 10.9335 19.1624 10.9059C13.4009 10.2611 12.5817 9.36763 11.8178 3.53704C11.7717 3.2515 11.5693 3.05807 11.2931 3.05807Z" fill="var(--fill-0, white)"/>
</g>
</svg>
